<svg width="75" height="86" viewBox="0 0 75 86" fill="none" xmlns="http://www.w3.org/2000/svg">
<path d="M27.7812 71.0754C30.1465 72.6354 32.9546 73.0569 35.5903 72.2476C38.2261 71.4383 40.4748 69.4641 41.8437 66.7575L54.9062 40.85C55.2759 40.116 55.5159 39.3057 55.6124 38.4653C55.7088 37.6249 55.6599 36.771 55.4683 35.9523C55.2768 35.1336 54.9464 34.3663 54.496 33.6941C54.0457 33.0219 53.4842 32.4582 52.8437 32.035L48.9374 29.455M27.2656 70.735C25.1165 69.3077 23.5492 66.9608 22.9076 64.2097C22.2661 61.4586 22.6027 58.528 23.8437 56.0612L33.7343 36.3529C34.4761 34.8722 34.6756 33.1146 34.2889 31.4655C33.9023 29.8164 32.9611 28.4104 31.6718 27.5558L24.4843 22.8079C23.8469 22.3812 23.1421 22.1034 22.4106 21.9905C21.6791 21.8775 20.9354 21.9317 20.2222 22.1499C19.5091 22.3681 18.8406 22.7459 18.2554 23.2617C17.6702 23.7774 17.1798 24.4209 16.8124 25.155L8.79681 41.2083C7.07432 44.653 6.61199 48.7398 7.51098 52.5744C8.40997 56.409 10.5971 59.6792 13.5937 61.6692L19.1562 65.36L27.2656 70.735Z" stroke="black" stroke-linecap="round" stroke-linejoin="round"/>
<path d="M62.8125 24.7608C63.9857 25.5332 65.0144 26.5635 65.8397 27.7925C66.6649 29.0216 67.2706 30.4254 67.6218 31.9234C67.9731 33.4214 68.0631 34.9841 67.8867 36.5221C67.7103 38.06 67.2709 39.5429 66.5938 40.8858L57.375 59.125C56.6267 60.6046 55.3978 61.6842 53.9571 62.1274C52.5164 62.5706 50.9812 62.3414 49.6875 61.49L45.7813 58.8921M28.3906 25.4417L30.7031 20.855C32.4448 17.4019 35.3108 14.8829 38.6713 13.8515C42.0318 12.8201 45.6119 13.3607 48.625 15.3546L54.1875 19.0454L62.2969 24.4204C60.1437 22.9989 57.5865 22.6156 55.1871 23.3547C52.7876 24.0938 50.7422 25.8948 49.5 28.3621L35.9375 55.1833C35.1922 56.6618 33.9661 57.741 32.5279 58.1843C31.0897 58.6276 29.5569 58.3989 28.2656 57.5483L24.3438 54.9504" stroke="black" stroke-linecap="round" stroke-linejoin="round"/>
</svg>
