<svg width="48" height="48" viewBox="0 0 48 48" fill="none" xmlns="http://www.w3.org/2000/svg">
<path d="M17.7798 39.67C19.2936 40.5407 21.0908 40.7759 22.7777 40.3242C24.4646 39.8725 25.9037 38.7706 26.7798 37.26L35.1398 22.8C35.3764 22.3903 35.53 21.938 35.5918 21.469C35.6535 20.9999 35.6222 20.5233 35.4996 20.0664C35.377 19.6094 35.1655 19.1811 34.8773 18.806C34.5891 18.4308 34.2297 18.1162 33.8198 17.88L31.3198 16.44M17.4498 39.48C16.0744 38.6833 15.0713 37.3735 14.6607 35.838C14.2501 34.3025 14.4656 32.6668 15.2598 31.29L21.5898 20.29C22.0646 19.4635 22.1922 18.4825 21.9448 17.5621C21.6973 16.6417 21.095 15.8569 20.2698 15.38L15.6698 12.73C15.2618 12.4918 14.8108 12.3367 14.3426 12.2737C13.8745 12.2107 13.3985 12.2409 12.9421 12.3627C12.4856 12.4845 12.0578 12.6954 11.6833 12.9832C11.3088 13.2711 10.9949 13.6302 10.7598 14.04L5.6298 23C4.52741 24.9226 4.23152 27.2036 4.80687 29.3438C5.38223 31.4841 6.78198 33.3093 8.6998 34.42L12.2598 36.48L17.4498 39.48Z" stroke="black" stroke-linecap="round" stroke-linejoin="round"/>
<path d="M40.2001 13.82C40.9509 14.2511 41.6093 14.8261 42.1375 15.5121C42.6656 16.1981 43.0532 16.9816 43.2781 17.8177C43.5029 18.6538 43.5605 19.526 43.4476 20.3844C43.3347 21.2428 43.0535 22.0705 42.6201 22.82L36.7201 33C36.2412 33.8259 35.4547 34.4284 34.5326 34.6758C33.6105 34.9232 32.628 34.7952 31.8001 34.32L29.3001 32.87M18.1701 14.2L19.6501 11.64C20.7647 9.71269 22.599 8.30673 24.7497 7.73108C26.9004 7.15543 29.1917 7.45717 31.1201 8.57L34.6801 10.63L39.8701 13.63C38.4921 12.8366 36.8555 12.6227 35.3198 13.0352C33.7842 13.4477 32.4751 14.4529 31.6801 15.83L23.0001 30.8C22.5231 31.6252 21.7384 32.2275 20.8179 32.475C19.8975 32.7224 18.9165 32.5948 18.0901 32.12L15.5801 30.67" stroke="black" stroke-linecap="round" stroke-linejoin="round"/>
</svg>
