<svg width="90" height="85" viewBox="0 0 90 85" fill="none" xmlns="http://www.w3.org/2000/svg">
<path d="M76.1134 41.0776C76.9993 40.5941 77.4986 39.6804 77.3017 38.6259L76.7575 35.6867C76.5296 34.4715 75.4482 33.4382 74.1503 33.0437L72.4346 15.0662C72.1548 12.1324 69.6264 9.73117 66.8181 9.73117H64.2109V7.58891C64.2109 4.87555 61.9201 2.65625 59.1189 2.65625H31.1007C28.2967 2.65625 26.0031 4.87555 26.0031 7.58891V9.73117H23.3987C20.589 9.73117 18.0606 12.1324 17.7821 15.0662L16.075 32.9853C14.6771 33.324 13.4889 34.4024 13.247 35.6867L12.6971 38.6259C12.489 39.7641 13.0825 40.7455 14.1034 41.1891V49.3943C13.0937 50.8831 12.6746 52.8979 13.0951 55.1132L13.6956 58.3087C14.3973 62.0168 17.2267 65.1737 20.4723 66.2137V72.4917H20.4582C19.1378 72.4917 17.8286 73.3563 17.4151 74.4998L15.5743 79.5666C15.3282 80.2533 15.4309 80.9572 15.8598 81.4977C16.2901 82.0356 16.9848 82.3438 17.7695 82.3438H33.902C34.6909 82.3438 35.3856 82.0343 35.8131 81.4924C36.2392 80.9519 36.3418 80.2466 36.0929 79.56L34.2521 74.4959C33.8345 73.3523 32.5267 72.4891 31.2118 72.4891H31.1978V66.5762H59.0162V72.4891H59.0022C57.6887 72.4891 56.3823 73.351 55.9604 74.4972L54.1211 79.56C53.8736 80.2466 53.9748 80.9505 54.4009 81.4924C54.8312 82.0343 55.5287 82.3438 56.3176 82.3438H72.4473C73.2348 82.3438 73.9309 82.0343 74.357 81.4924C74.7831 80.9505 74.8871 80.2466 74.6368 79.56L72.7989 74.4959C72.3812 73.3523 71.072 72.4891 69.7571 72.4891H69.7417V66.211C72.9859 65.1711 75.8167 62.0141 76.517 58.306L77.1231 55.1105C77.5421 52.8952 77.1217 50.8805 76.112 49.3903L76.1134 41.0776ZM68.0696 41.4468H73.4317V47.2414C72.7313 46.9719 71.9816 46.8352 71.2253 46.839H68.0711L68.0696 41.4468ZM16.7865 41.4468H22.1486V46.8403H18.9915C18.2352 46.8365 17.4855 46.9732 16.7851 47.2427L16.7865 41.4468ZM58.8109 14.9919C58.8039 15.0809 58.8137 15.1672 58.8011 15.2575L56.4132 33.154C56.0673 35.7438 53.9059 37.9339 51.6953 37.9339H38.5243C36.3109 37.9339 34.1495 35.7452 33.8064 33.154L31.4143 15.2575C31.4031 15.1672 31.4129 15.0809 31.4045 14.9919H58.8109ZM20.454 15.2774C20.6101 13.6305 21.9868 12.1842 23.3987 12.1842H26.5234C26.9874 13.1118 27.7471 13.8791 28.6961 14.3783C28.6862 14.7648 28.6975 15.1566 28.7509 15.555L31.1429 33.4515C31.6506 37.2752 34.9609 40.3856 38.5229 40.3856H51.6939C55.2517 40.3856 58.5634 37.2752 59.0739 33.4515L61.4617 15.555C61.5151 15.1579 61.5264 14.7661 61.5179 14.3783C62.4664 13.8788 63.2256 13.1116 63.6892 12.1842H66.8167C68.2286 12.1842 69.6039 13.6305 69.7614 15.2787L71.439 32.8645H68.2454C66.4918 32.8645 64.8184 34.1355 64.5287 35.6867L63.9775 38.6259C63.7665 39.7641 64.3614 40.7455 65.3851 41.1905V46.8403H24.8303V41.0776C25.7148 40.5941 26.2154 39.6804 26.02 38.6259L25.4757 35.6867C25.1832 34.1355 23.5126 32.8645 21.7562 32.8645H18.7792L20.454 15.2774ZM28.5189 72.4904H23.1568V66.5776H28.5189V72.4904ZM61.6979 72.4904V66.5776H67.0614V72.4904H61.6979Z" fill="#F8F8F8"/>
</svg>
