<svg width="185" height="171" viewBox="0 0 185 171" fill="none" xmlns="http://www.w3.org/2000/svg">
<path d="M29.0415 111.737V104.75C29.0415 101.175 31.929 98.25 35.4582 98.25H67.5415C71.0707 98.25 73.9582 101.175 73.9582 104.75V111.77C70.2365 113.102 67.5415 116.678 67.5415 120.903V127.5H35.4582V120.87C35.4582 116.677 32.7632 113.07 29.0415 111.737ZM77.1665 114.5C73.6373 114.5 70.7498 117.425 70.7498 121V130.75H32.2498V121C32.2498 119.276 31.5738 117.623 30.3704 116.404C29.1671 115.185 27.535 114.5 25.8332 114.5C24.1314 114.5 22.4993 115.185 21.2959 116.404C20.0925 117.623 19.4165 119.276 19.4165 121V137.25C19.4165 140.825 22.304 143.75 25.8332 143.75V150.25H32.2498V143.75H70.7498V150.25H77.1665V143.75C80.6957 143.75 83.5832 140.825 83.5832 137.25V121C83.5832 117.425 80.6957 114.5 77.1665 114.5Z" fill="#F8F8F8"/>
<path d="M100.042 111.737V104.75C100.042 101.175 102.929 98.25 106.458 98.25H138.542C142.071 98.25 144.958 101.175 144.958 104.75V111.77C141.237 113.102 138.542 116.678 138.542 120.903V127.5H106.458V120.87C106.458 116.677 103.763 113.07 100.042 111.737ZM148.167 114.5C144.637 114.5 141.75 117.425 141.75 121V130.75H103.25V121C103.25 119.276 102.574 117.623 101.37 116.404C100.167 115.185 98.535 114.5 96.8332 114.5C95.1314 114.5 93.4993 115.185 92.2959 116.404C91.0925 117.623 90.4165 119.276 90.4165 121V137.25C90.4165 140.825 93.304 143.75 96.8332 143.75V150.25H103.25V143.75H141.75V150.25H148.167V143.75C151.696 143.75 154.583 140.825 154.583 137.25V121C154.583 117.425 151.696 114.5 148.167 114.5Z" fill="#F8F8F8"/>
<path d="M29.0415 35.782V28.3141C29.0415 24.4933 31.929 21.3672 35.4582 21.3672H67.5415C71.0707 21.3672 73.9582 24.4933 73.9582 28.3141V35.8167C70.2365 37.2408 67.5415 41.0616 67.5415 45.577V52.6281H35.4582V45.5423C35.4582 41.0616 32.7632 37.2061 29.0415 35.782ZM77.1665 38.7344C73.6373 38.7344 70.7498 41.8605 70.7498 45.6812V56.1016H32.2498V45.6812C32.2498 43.8388 31.5738 42.0719 30.3704 40.7691C29.1671 39.4663 27.535 38.7344 25.8332 38.7344C24.1314 38.7344 22.4993 39.4663 21.2959 40.7691C20.0925 42.0719 19.4165 43.8388 19.4165 45.6812V63.0484C19.4165 66.8692 22.304 69.9953 25.8332 69.9953V76.9422H32.2498V69.9953H70.7498V76.9422H77.1665V69.9953C80.6957 69.9953 83.5832 66.8692 83.5832 63.0484V45.6812C83.5832 41.8605 80.6957 38.7344 77.1665 38.7344Z" fill="#808080"/>
<path d="M99.0415 38.782V31.3141C99.0415 27.4933 101.929 24.3672 105.458 24.3672H137.542C141.071 24.3672 143.958 27.4933 143.958 31.3141V38.8167C140.237 40.2408 137.542 44.0616 137.542 48.577V55.6281H105.458V48.5423C105.458 44.0616 102.763 40.2061 99.0415 38.782ZM147.167 41.7344C143.637 41.7344 140.75 44.8605 140.75 48.6812V59.1016H102.25V48.6812C102.25 46.8388 101.574 45.0719 100.37 43.7691C99.1671 42.4663 97.535 41.7344 95.8332 41.7344C94.1314 41.7344 92.4993 42.4663 91.2959 43.7691C90.0925 45.0719 89.4165 46.8388 89.4165 48.6812V66.0484C89.4165 69.8692 92.304 72.9953 95.8332 72.9953V79.9422H102.25V72.9953H140.75V79.9422H147.167V72.9953C150.696 72.9953 153.583 69.8692 153.583 66.0484V48.6812C153.583 44.8605 150.696 41.7344 147.167 41.7344Z" fill="#F8F8F8"/>
</svg>
