<svg width="185" height="160" viewBox="0 0 185 160" fill="none" xmlns="http://www.w3.org/2000/svg">
<path d="M100.042 111.737V104.75C100.042 101.175 102.929 98.25 106.458 98.25H138.542C142.071 98.25 144.958 101.175 144.958 104.75V111.77C141.237 113.102 138.542 116.678 138.542 120.903V127.5H106.458V120.87C106.458 116.677 103.763 113.07 100.042 111.737ZM148.167 114.5C144.637 114.5 141.75 117.425 141.75 121V130.75H103.25V121C103.25 119.276 102.574 117.623 101.37 116.404C100.167 115.185 98.535 114.5 96.8332 114.5C95.1314 114.5 93.4993 115.185 92.2959 116.404C91.0925 117.623 90.4165 119.276 90.4165 121V137.25C90.4165 140.825 93.304 143.75 96.8332 143.75V150.25H103.25V143.75H141.75V150.25H148.167V143.75C151.696 143.75 154.583 140.825 154.583 137.25V121C154.583 117.425 151.696 114.5 148.167 114.5Z" fill="#F8F8F8"/>
<path d="M100.042 33.7375V26.75C100.042 23.175 102.929 20.25 106.458 20.25H138.542C142.071 20.25 144.958 23.175 144.958 26.75V33.77C141.237 35.1025 138.542 38.6775 138.542 42.9025V49.5H106.458V42.87C106.458 38.6775 103.763 35.07 100.042 33.7375ZM148.167 36.5C144.637 36.5 141.75 39.425 141.75 43V52.75H103.25V43C103.25 41.2761 102.574 39.6228 101.37 38.4038C100.167 37.1848 98.535 36.5 96.8332 36.5C95.1314 36.5 93.4993 37.1848 92.2959 38.4038C91.0925 39.6228 90.4165 41.2761 90.4165 43V59.25C90.4165 62.825 93.304 65.75 96.8332 65.75V72.25H103.25V65.75H141.75V72.25H148.167V65.75C151.696 65.75 154.583 62.825 154.583 59.25V43C154.583 39.425 151.696 36.5 148.167 36.5Z" fill="#808080"/>
</svg>
