<svg width="62" height="52" viewBox="0 0 62 52" fill="none" xmlns="http://www.w3.org/2000/svg">
<g clip-path="url(#clip0_228_4)">
<g filter="url(#filter0_f_228_4)">
<path fill-rule="evenodd" clip-rule="evenodd" d="M41.3334 19.5C41.3334 21.7986 40.2447 24.003 38.3069 25.6283C36.369 27.2536 33.7407 28.1667 31.0001 28.1667C28.2595 28.1667 25.6312 27.2536 23.6933 25.6283C21.7554 24.003 20.6667 21.7986 20.6667 19.5C20.6667 17.2015 21.7554 14.9971 23.6933 13.3718C25.6312 11.7465 28.2595 10.8334 31.0001 10.8334C33.7407 10.8334 36.369 11.7465 38.3069 13.3718C40.2447 14.9971 41.3334 17.2015 41.3334 19.5ZM36.1667 19.5C36.1667 20.6493 35.6224 21.7515 34.6535 22.5642C33.6845 23.3768 32.3704 23.8334 31.0001 23.8334C29.6298 23.8334 28.3156 23.3768 27.3467 22.5642C26.3778 21.7515 25.8334 20.6493 25.8334 19.5C25.8334 18.3508 26.3778 17.2486 27.3467 16.4359C28.3156 15.6233 29.6298 15.1667 31.0001 15.1667C32.3704 15.1667 33.6845 15.6233 34.6535 16.4359C35.6224 17.2486 36.1667 18.3508 36.1667 19.5Z" fill="black"/>
<path fill-rule="evenodd" clip-rule="evenodd" d="M31 2.16669C15.3063 2.16669 2.58337 12.8375 2.58337 26C2.58337 39.1625 15.3063 49.8334 31 49.8334C46.6938 49.8334 59.4167 39.1625 59.4167 26C59.4167 12.8375 46.6938 2.16669 31 2.16669ZM7.75004 26C7.75004 30.5284 9.59196 34.697 12.679 38.0077C14.8471 35.6198 17.644 33.6846 20.8512 32.3534C24.0585 31.0221 27.5894 30.3308 31.168 30.3334C34.7002 30.3305 38.1867 31.004 41.3616 32.3024C44.5366 33.6008 47.3163 35.4899 49.489 37.8257C51.7273 35.3635 53.2344 32.4897 53.8855 29.442C54.5367 26.3943 54.3132 23.2603 53.2335 20.2995C52.1538 17.3386 50.249 14.636 47.6767 12.4151C45.1044 10.1942 41.9385 8.51905 38.441 7.52812C34.9435 6.5372 31.215 6.25903 27.5638 6.71663C23.9127 7.17423 20.444 8.35445 17.4447 10.1596C14.4454 11.9648 12.0017 14.3431 10.3159 17.0976C8.63005 19.8522 7.75051 22.9038 7.75004 26ZM31 45.5C25.6627 45.5067 20.4866 43.9668 16.3474 41.1407C18.0134 39.1403 20.231 37.507 22.8114 36.3798C25.3917 35.2527 28.2586 34.665 31.168 34.6667C34.041 34.6648 36.8732 35.2378 39.4293 36.3381C41.9853 37.4384 44.1915 39.0344 45.8645 40.9934C41.6932 43.9112 36.4317 45.5064 31 45.5Z" fill="black"/>
</g>
</g>
<defs>
<filter id="filter0_f_228_4" x="-1.41663" y="-1.83331" width="64.8334" height="55.6667" filterUnits="userSpaceOnUse" color-interpolation-filters="sRGB">
<feFlood flood-opacity="0" result="BackgroundImageFix"/>
<feBlend mode="normal" in="SourceGraphic" in2="BackgroundImageFix" result="shape"/>
<feGaussianBlur stdDeviation="2" result="effect1_foregroundBlur_228_4"/>
</filter>
<clipPath id="clip0_228_4">
<rect width="62" height="52" fill="white"/>
</clipPath>
</defs>
</svg>
