<svg width="176" height="60" viewBox="0 0 176 60" fill="none" xmlns="http://www.w3.org/2000/svg">
<g clip-path="url(#clip0_169_351)">
<path d="M91.0229 19.1046C90.9226 27.4294 98.0788 32.0747 103.469 34.8369C109.008 37.6706 110.868 39.488 110.846 42.0224C110.805 45.9007 106.428 47.6125 102.333 47.679C95.1878 47.7954 91.0332 45.6506 87.7305 44.0284L85.1565 56.6928C88.4702 58.2983 94.6062 59.6986 100.969 59.76C115.905 59.76 125.676 52.0077 125.729 39.9882C125.788 24.7337 105.663 23.8894 105.8 17.0711C105.848 15.0036 107.724 12.7974 111.835 12.2364C113.87 11.953 119.487 11.7362 125.856 14.82L128.356 2.567C124.931 1.25568 120.529 1.14441e-05 115.048 1.14441e-05C100.99 1.14441e-05 91.1027 7.85784 91.0229 19.1046ZM152.376 1.05543C149.649 1.05543 147.35 2.7282 146.325 5.29519L124.99 58.86H139.914L142.885 50.2294H161.122L162.845 58.86H176L164.521 1.05543H152.376ZM154.464 16.6706L158.771 38.3769H146.975L154.464 16.6706ZM72.9272 1.05615L61.1627 58.8593H75.3851L87.1441 1.05471L72.9272 1.05615ZM51.8877 1.05615L37.0844 40.3995L31.0963 6.94628C30.3937 3.21182 27.6189 1.05543 24.5376 1.05543H0.338937L0 2.73399C4.96788 3.86748 10.6123 5.69567 14.0319 7.65182C16.1246 8.84676 16.7214 9.89133 17.4089 12.7309L28.7506 58.86H43.78L66.8223 1.05543L51.8877 1.05615Z" fill="url(#paint0_linear_169_351)"/>
</g>
<defs>
<linearGradient id="paint0_linear_169_351" x1="8091.42" y1="179.639" x2="8273.29" y2="-5957.29" gradientUnits="userSpaceOnUse">
<stop stop-color="#222357"/>
<stop offset="1" stop-color="#254AA5"/>
</linearGradient>
<clipPath id="clip0_169_351">
<rect width="176" height="60" fill="white"/>
</clipPath>
</defs>
</svg>
