<svg width="136" height="104" viewBox="0 0 136 104" fill="none" xmlns="http://www.w3.org/2000/svg">
<g clip-path="url(#clip0_169_321)">
<path d="M96.4027 28.0682C100.141 28.0682 103.031 30.0254 105.24 33.9396C107.449 37.8534 108.469 43.0723 108.469 49.5957V80.9079H103.71V73.7329H103.54C101.501 79.6043 98.6119 82.5397 95.2129 82.5397C92.3237 82.5397 89.7745 80.9084 87.7353 77.6472C85.8658 74.3854 84.6761 69.8191 84.6761 64.9265C84.6761 59.7075 85.6958 55.4671 87.7353 52.2054C89.7745 48.9437 92.6637 47.6391 96.0627 47.6391C99.1216 47.6391 101.501 48.6179 103.37 50.9008V48.6179C103.37 45.5734 102.778 42.5293 101.594 40.5457L101.331 40.1373C99.9713 37.8539 98.2719 36.5493 96.4027 36.5493C93.5135 36.5493 91.3042 38.8326 89.7745 43.399L85.3561 38.1792C88.0751 31.3294 91.644 28.0682 96.4027 28.0682ZM72.4401 5.88818C75.4895 5.88818 78.3874 7.92485 80.7045 11.7229L81.1074 12.4111C83.4866 16.3254 84.6761 22.1968 84.6761 28.394C84.6761 34.5912 83.4866 40.1363 81.1074 44.3763C78.7282 48.6164 75.839 50.8998 72.4401 50.8998L64.2828 50.5735V80.9079H59.1841V5.88818H72.4401ZM97.0821 55.4666C95.0428 55.4666 93.3435 56.4451 91.984 58.4021C90.6243 60.0328 89.9445 62.3158 89.9445 65.2513C89.9445 67.861 90.6245 70.1439 91.644 71.449C92.8337 73.0798 94.1932 74.0581 95.5529 74.0581C97.4561 74.0581 99.3596 72.6373 100.848 70.0613L101.161 69.4918C102.861 66.5564 103.71 62.9684 103.71 59.0541C102.181 56.7712 99.9711 55.4666 97.0821 55.4666ZM72.7804 15.0203H64.283V41.1156H72.7804C74.6496 41.1156 76.519 39.811 77.7088 37.2019C80.4277 32.3093 80.4277 24.155 77.8788 19.2619L77.7088 18.9356C76.349 16.3264 74.6496 14.6956 72.7801 15.0218M136 29.6991L119.175 103.74H114.077L120.365 77.9729L109.318 30.0254H114.757L122.744 66.8826H122.914L130.732 30.0254H136V29.6991Z" fill="#5F6368"/>
<path d="M44.0589 44.0506C44.0589 41.1152 43.8889 38.1797 43.7189 35.2443H22.4761V51.8792H34.5421C34.0324 57.0975 32.5029 61.9901 30.1237 64.9261V75.6896H37.4313C41.68 68.1878 44.0592 57.0975 44.0592 44.0511" fill="#4285F4"/>
<path d="M22.4755 86.1273C28.5934 86.1273 33.6918 82.2131 37.4307 75.6896L30.1231 64.9261C28.0836 67.5353 25.5344 69.1662 22.4755 69.1662C16.6971 69.1662 11.5987 61.6644 9.89922 51.2267H2.42188V62.3164C6.33055 76.9942 13.9782 86.1273 22.4755 86.1273Z" fill="#34A853"/>
<path d="M9.89925 51.2266C8.87978 46.0078 8.87978 40.1369 9.89925 34.5917V23.502H2.4219C-0.807301 35.5705 -0.807301 49.922 2.4219 62.3164L9.89925 51.2266Z" fill="#FBBC04"/>
<path d="M22.4757 16.9786C25.7046 16.9786 28.7636 19.262 31.143 23.502L37.6009 11.1077C33.522 3.93166 28.0838 -0.30838 22.6454 0.0173848C14.1481 0.0173848 6.33073 9.15052 2.5918 23.8283L10.0694 34.9181C11.5989 24.4803 16.6973 16.9786 22.4757 16.9786Z" fill="#EA4335"/>
</g>
<defs>
<clipPath id="clip0_169_321">
<rect width="136" height="104" fill="white"/>
</clipPath>
</defs>
</svg>
