<svg width="52" height="92" viewBox="0 0 52 92" fill="none" xmlns="http://www.w3.org/2000/svg">
<g clip-path="url(#clip0_169_340)">
<path d="M44.1125 7.16103C41.2821 2.3228 36.1658 0.248535 29.6205 0.248535H10.6243C9.97664 0.248385 9.35023 0.594818 8.85772 1.22552C8.36521 1.85622 8.03891 2.72979 7.93754 3.68909L0.02785 78.9241C-0.129369 80.4076 0.636616 81.7511 1.63924 81.7511H13.3669L16.3122 53.7334L16.2208 54.6108C16.4306 52.6304 17.56 51.1696 18.8974 51.1696H24.4703C35.4183 51.1696 43.9908 44.5005 46.4949 25.2083C46.5693 24.6377 46.6337 24.0823 46.6893 23.5398C46.3733 23.2887 46.3733 23.2887 46.6893 23.5398C47.435 16.4092 46.6842 11.5554 44.1125 7.16103Z" fill="#27346A"/>
<path d="M20.7996 20.9711C21.1201 20.7418 21.4709 20.6231 21.826 20.6238H36.7187C38.4823 20.6238 40.1272 20.7959 41.6303 21.1587C42.0509 21.2594 42.4693 21.3795 42.885 21.5188C43.4741 21.7138 44.0564 21.9524 44.6298 22.2338C45.3688 22.6039 46.057 23.035 46.6895 23.5398C47.435 16.4064 46.6842 11.5554 44.1125 7.16103C41.2805 2.3228 36.1658 0.248535 29.6205 0.248535H10.6226C9.28507 0.248535 8.14716 1.70896 7.93754 3.68909L0.0278511 78.9213C-0.129368 80.4073 0.636617 81.749 1.63762 81.749H13.3669L19.4775 23.6336C19.5376 23.0624 19.6894 22.5217 19.9197 22.0579C20.15 21.5941 20.4519 21.2211 20.7996 20.9711Z" fill="#27346A"/>
<path d="M46.4945 25.2083C43.9904 44.4978 35.4181 51.1696 24.4699 51.1696H18.8953C17.5579 51.1696 16.4284 52.6304 16.2206 54.6108L12.5564 89.4474C12.4195 90.7458 13.089 91.9223 13.9649 91.9223H23.851C24.4173 91.9221 24.9649 91.6188 25.3955 91.0671C25.826 90.5154 26.1112 89.7514 26.1997 88.9125L26.296 88.157L28.1592 70.4467L28.2793 69.4679C28.3678 68.6291 28.6529 67.8651 29.0834 67.3134C29.5139 66.7617 30.0615 66.4584 30.6278 66.4581H32.1074C41.6841 66.4581 49.1829 60.6231 51.3742 43.7475C52.2889 36.6952 51.8156 30.8072 49.396 26.6715C48.6621 25.4188 47.7506 24.3842 46.6889 23.5398C46.6314 24.0851 46.5691 24.6377 46.4945 25.2083Z" fill="#2790C3"/>
<path d="M44.0684 21.9728C43.6779 21.8018 43.2838 21.6504 42.8866 21.5189C42.4707 21.3817 42.0523 21.2625 41.6319 21.1612C40.1271 20.796 38.4834 20.6235 36.7183 20.6235H21.8274C21.4721 20.6226 21.1212 20.7423 20.801 20.9736C20.4529 21.2227 20.1505 21.5954 19.9201 22.0593C19.6897 22.5233 19.5382 23.0645 19.4787 23.6361L16.3136 53.7335L16.2222 54.6108C16.4304 52.6304 17.5597 51.1697 18.8973 51.1697H24.4719C35.4199 51.1697 43.9922 44.5006 46.4963 25.2083C46.5709 24.6377 46.6334 24.0848 46.6909 23.5398C46.0569 23.0382 45.3703 22.6037 44.6312 22.2363C44.4447 22.1435 44.2571 22.0557 44.0686 21.9728" fill="#1F264F"/>
</g>
<defs>
<clipPath id="clip0_169_340">
<rect width="52" height="92" fill="white"/>
</clipPath>
</defs>
</svg>
