<svg width="89" height="85" viewBox="0 0 89 85" fill="none" xmlns="http://www.w3.org/2000/svg">
<path d="M18.5417 32.4063V24.7917C18.5417 20.8959 21.8792 17.7084 25.9584 17.7084H63.0418C67.1209 17.7084 70.4584 20.8959 70.4584 24.7917V32.4417C66.1567 33.8938 63.0418 37.7896 63.0418 42.3938V49.5834H25.9584V42.3584C25.9584 37.7896 22.8434 33.8584 18.5417 32.4063ZM74.1667 35.4167C70.0876 35.4167 66.7501 38.6042 66.7501 42.5V53.125H22.2501V42.5C22.2501 40.6214 21.4687 38.8198 20.0778 37.4914C18.6869 36.163 16.8004 35.4167 14.8334 35.4167C12.8664 35.4167 10.9799 36.163 9.58904 37.4914C8.19814 38.8198 7.41675 40.6214 7.41675 42.5V60.2084C7.41675 64.1042 10.7542 67.2917 14.8334 67.2917V74.375H22.2501V67.2917H66.7501V74.375H74.1667V67.2917C78.2459 67.2917 81.5834 64.1042 81.5834 60.2084V42.5C81.5834 38.6042 78.2459 35.4167 74.1667 35.4167Z" fill="#FF0000"/>
</svg>
