<svg width="89" height="80" viewBox="0 0 89 80" fill="none" xmlns="http://www.w3.org/2000/svg">
<path d="M18.5417 30.5V23.3333C18.5417 19.6666 21.8792 16.6666 25.9584 16.6666H63.0418C67.1209 16.6666 70.4584 19.6666 70.4584 23.3333V30.5333C66.1567 31.9 63.0418 35.5666 63.0418 39.9V46.6666H25.9584V39.8666C25.9584 35.5666 22.8434 31.8666 18.5417 30.5ZM74.1667 33.3333C70.0876 33.3333 66.7501 36.3333 66.7501 40V50H22.2501V40C22.2501 38.2318 21.4687 36.5362 20.0778 35.2859C18.6869 34.0357 16.8004 33.3333 14.8334 33.3333C12.8664 33.3333 10.9799 34.0357 9.58904 35.2859C8.19814 36.5362 7.41675 38.2318 7.41675 40V56.6666C7.41675 60.3333 10.7542 63.3333 14.8334 63.3333V70H22.2501V63.3333H66.7501V70H74.1667V63.3333C78.2459 63.3333 81.5834 60.3333 81.5834 56.6666V40C81.5834 36.3333 78.2459 33.3333 74.1667 33.3333Z" fill="#F8F8F8"/>
</svg>
