<svg width="89" height="84" viewBox="0 0 89 84" fill="none" xmlns="http://www.w3.org/2000/svg">
<path d="M18.5417 32.025V24.5C18.5417 20.65 21.8792 17.5 25.9584 17.5H63.0418C67.1209 17.5 70.4584 20.65 70.4584 24.5V32.06C66.1567 33.495 63.0418 37.345 63.0418 41.895V49H25.9584V41.86C25.9584 37.345 22.8434 33.46 18.5417 32.025ZM74.1667 35C70.0876 35 66.7501 38.15 66.7501 42V52.5H22.2501V42C22.2501 40.1435 21.4687 38.363 20.0778 37.0503C18.6869 35.7375 16.8004 35 14.8334 35C12.8664 35 10.9799 35.7375 9.58904 37.0503C8.19814 38.363 7.41675 40.1435 7.41675 42V59.5C7.41675 63.35 10.7542 66.5 14.8334 66.5V73.5H22.2501V66.5H66.7501V73.5H74.1667V66.5C78.2459 66.5 81.5834 63.35 81.5834 59.5V42C81.5834 38.15 78.2459 35 74.1667 35Z" fill="#808080"/>
</svg>
