<svg width="86" height="90" viewBox="0 0 86 90" fill="none" xmlns="http://www.w3.org/2000/svg">
<path d="M17.9167 34.3125V26.25C17.9167 22.125 21.1417 18.75 25.0834 18.75H60.9168C64.8584 18.75 68.0834 22.125 68.0834 26.25V34.35C63.9268 35.8875 60.9168 40.0125 60.9168 44.8875V52.5H25.0834V44.85C25.0834 40.0125 22.0734 35.85 17.9167 34.3125ZM71.6667 37.5C67.7251 37.5 64.5001 40.875 64.5001 45V56.25H21.5001V45C21.5001 43.0109 20.745 41.1032 19.401 39.6967C18.057 38.2902 16.2341 37.5 14.3334 37.5C12.4327 37.5 10.6098 38.2902 9.26582 39.6967C7.92181 41.1032 7.16675 43.0109 7.16675 45V63.75C7.16675 67.875 10.3917 71.25 14.3334 71.25V78.75H21.5001V71.25H64.5001V78.75H71.6667V71.25C75.6084 71.25 78.8334 67.875 78.8334 63.75V45C78.8334 40.875 75.6084 37.5 71.6667 37.5Z" fill="#F8F8F8"/>
</svg>
