<svg width="66" height="61" viewBox="0 0 66 61" fill="none" xmlns="http://www.w3.org/2000/svg">
<g clip-path="url(#clip0_169_390)">
<path fill-rule="evenodd" clip-rule="evenodd" d="M28.875 5.08331C25.1476 5.08361 21.4743 5.90774 18.1617 7.48695C14.849 9.06616 11.993 11.3547 9.83186 14.1615C7.67076 16.9684 6.26724 20.2122 5.73841 23.6223C5.20958 27.0325 5.57078 30.5101 6.79186 33.765C8.01293 37.0199 10.0585 39.9577 12.7579 42.3333C15.4572 44.7089 18.7322 46.4535 22.3094 47.4214C25.8866 48.3893 29.6624 48.5525 33.3218 47.8975C36.9811 47.2424 40.4179 45.788 43.3455 43.6556L53.3885 52.9378C53.9071 53.4008 54.6018 53.657 55.3228 53.6512C56.0439 53.6454 56.7336 53.3781 57.2435 52.9069C57.7533 52.4356 58.0426 51.7981 58.0488 51.1317C58.0551 50.4653 57.7779 49.8233 57.277 49.3439L47.234 40.0617C49.951 36.8761 51.6427 33.0478 52.1155 29.0149C52.5883 24.9821 51.8232 20.9078 49.9076 17.2581C47.992 13.6085 45.0034 10.531 41.2838 8.3779C37.5642 6.22479 33.2639 5.08304 28.875 5.08331ZM11 26.6875C11 22.3059 12.8832 18.1037 16.2354 15.0055C19.5876 11.9072 24.1342 10.1666 28.875 10.1666C33.6157 10.1666 38.1623 11.9072 41.5145 15.0055C44.8667 18.1037 46.75 22.3059 46.75 26.6875C46.75 31.0691 44.8667 35.2712 41.5145 38.3695C38.1623 41.4677 33.6157 43.2083 28.875 43.2083C24.1342 43.2083 19.5876 41.4677 16.2354 38.3695C12.8832 35.2712 11 31.0691 11 26.6875Z" fill="black"/>
</g>
<defs>
<clipPath id="clip0_169_390">
<rect width="66" height="61" fill="white"/>
</clipPath>
</defs>
</svg>
