<svg width="85" height="69" viewBox="0 0 85 69" fill="none" xmlns="http://www.w3.org/2000/svg">
<g clip-path="url(#clip0_169_298)">
<g filter="url(#filter0_d_169_298)">
<path d="M12.5537 31.5278C11.5588 32.3364 11 33.4325 11 34.5753C11 35.7181 11.5588 36.8142 12.5537 37.6228L32.5853 53.8896C33.0788 54.2901 33.6646 54.6079 34.3094 54.8247C34.9541 55.0415 35.6452 55.1531 36.343 55.1531C37.0409 55.1531 37.7319 55.0415 38.3767 54.8247C39.0214 54.6079 39.6073 54.2901 40.1007 53.8896C40.5942 53.489 40.9856 53.0134 41.2527 52.49C41.5198 51.9666 41.6572 51.4057 41.6572 50.8392C41.6572 50.2727 41.5198 49.7117 41.2527 49.1883C40.9856 48.6649 40.5942 48.1894 40.1007 47.7888L29.1357 38.8878H69.9889C71.3978 38.8878 72.7491 38.4335 73.7454 37.6247C74.7417 36.816 75.3014 35.7191 75.3014 34.5753C75.3014 33.4316 74.7417 32.3347 73.7454 31.5259C72.7491 30.7172 71.3978 30.2628 69.9889 30.2628H29.1357L40.1007 21.3618C41.0969 20.5528 41.6563 19.4557 41.656 18.3118C41.6557 17.168 41.0956 16.0711 40.099 15.2625C39.1024 14.4539 37.7509 13.9997 36.3418 14C34.9327 14.0003 33.5815 14.4549 32.5853 15.2639L12.5537 31.5278Z" fill="black"/>
<path d="M29.1357 38.3878H27.7265L28.8206 39.276L39.7856 48.177C40.2294 48.5373 40.5745 48.9593 40.8073 49.4156C41.0399 49.8713 41.1572 50.3547 41.1572 50.8392C41.1572 51.3237 41.0399 51.8071 40.8073 52.2628C40.5745 52.7191 40.2294 53.1411 39.7856 53.5014C39.3417 53.8617 38.8095 54.1517 38.2173 54.3508C37.6253 54.5498 36.9881 54.6531 36.343 54.6531C35.6979 54.6531 35.0608 54.5498 34.4687 54.3508C33.8766 54.1517 33.3444 53.8617 32.9004 53.5014L12.869 37.2348C11.9749 36.5081 11.5 35.548 11.5 34.5753C11.5 33.6027 11.9748 32.6427 12.8688 31.916C12.8689 31.9159 12.869 31.9159 12.869 31.9158L32.9005 15.6521L32.9005 15.6521C33.7987 14.9226 35.0356 14.5003 36.3419 14.5C37.6482 14.4998 38.8853 14.9216 39.7839 15.6508C40.6797 16.3776 41.1557 17.3384 41.156 18.312C41.1563 19.2856 40.6808 20.2465 39.7855 20.9737L28.8206 29.8746L27.7265 30.7628H29.1357H69.9889C71.2951 30.7628 72.5319 31.1849 73.4302 31.9141C74.3257 32.641 74.8014 33.6018 74.8014 34.5753C74.8014 35.5488 74.3257 36.5096 73.4302 37.2365C72.5319 37.9657 71.2951 38.3878 69.9889 38.3878H29.1357Z" stroke="white"/>
</g>
</g>
<defs>
<filter id="filter0_d_169_298" x="7" y="14" width="72.3013" height="49.1531" filterUnits="userSpaceOnUse" color-interpolation-filters="sRGB">
<feFlood flood-opacity="0" result="BackgroundImageFix"/>
<feColorMatrix in="SourceAlpha" type="matrix" values="0 0 0 0 0 0 0 0 0 0 0 0 0 0 0 0 0 0 127 0" result="hardAlpha"/>
<feOffset dy="4"/>
<feGaussianBlur stdDeviation="2"/>
<feComposite in2="hardAlpha" operator="out"/>
<feColorMatrix type="matrix" values="0 0 0 0 0 0 0 0 0 0 0 0 0 0 0 0 0 0 0.25 0"/>
<feBlend mode="normal" in2="BackgroundImageFix" result="effect1_dropShadow_169_298"/>
<feBlend mode="normal" in="SourceGraphic" in2="effect1_dropShadow_169_298" result="shape"/>
</filter>
<clipPath id="clip0_169_298">
<rect width="85" height="69" fill="white"/>
</clipPath>
</defs>
</svg>
