<svg width="604" height="646" viewBox="0 0 604 646" fill="none" xmlns="http://www.w3.org/2000/svg">
<g filter="url(#filter0_d_169_371)">
<mask id="path-1-inside-1_169_371" fill="white">
<path d="M245.311 6.06019L181.359 55.3535C176.261 59.3385 172.838 65.0913 171.765 71.4774C170.693 77.8635 172.048 84.4196 175.564 89.8527C180.999 98.2418 183.089 108.371 181.419 118.233C179.748 128.095 174.439 136.97 166.544 143.1C158.608 149.17 148.686 152.036 138.742 151.128C128.799 150.22 119.561 145.606 112.857 138.198C108.513 133.403 102.533 130.412 96.0945 129.815C89.6562 129.219 83.2275 131.06 78.0759 134.975L14.0535 184.311C8.65329 188.482 5.12518 194.627 4.24349 201.399C3.3618 208.17 5.19858 215.014 9.35068 220.428L87.7641 322.495C92.627 328.798 98.8803 333.889 106.035 337.369C107.41 338.044 108.611 339.028 109.545 340.243C110.478 341.458 111.12 342.873 111.419 344.377C112.945 352.198 116.262 359.558 121.109 365.877L322.22 627.611C326.382 633.018 332.517 636.549 339.278 637.429C346.039 638.31 352.873 636.467 358.282 632.307L422.242 582.95C427.34 578.965 430.763 573.212 431.836 566.826C432.908 560.44 431.553 553.884 428.037 548.45C422.547 540.073 420.422 529.925 422.088 520.042C423.753 510.158 429.087 501.269 437.019 495.154C444.952 489.04 454.897 486.153 464.862 487.071C474.828 487.99 484.077 492.646 490.757 500.107C495.101 504.902 501.081 507.893 507.519 508.489C513.958 509.086 520.386 507.245 525.538 503.33L589.49 454.036C594.89 449.866 598.418 443.72 599.3 436.949C600.181 430.178 598.344 423.334 594.192 417.92L393.082 156.185C388.228 149.876 381.979 144.781 374.826 141.299C373.446 140.625 372.241 139.641 371.305 138.423C370.369 137.204 369.727 135.785 369.43 134.277C367.904 126.462 364.591 119.108 359.751 112.791L281.324 10.7364C277.159 5.34728 271.033 1.82987 264.284 0.953575C257.535 0.0772779 250.713 1.91337 245.311 6.06019ZM169.121 294.322C170.778 296.478 171.994 298.939 172.701 301.566C173.407 304.193 173.59 306.934 173.239 309.632C172.887 312.33 172.009 314.933 170.653 317.291C169.297 319.65 167.491 321.718 165.338 323.377L148.658 336.234C144.302 339.489 138.843 340.898 133.461 340.156C128.078 339.414 123.204 336.58 119.892 332.267C116.58 327.955 115.095 322.51 115.76 317.108C116.424 311.707 119.184 306.784 123.443 303.403L140.11 290.544C142.263 288.884 144.721 287.665 147.345 286.956C149.968 286.248 152.705 286.064 155.399 286.415C158.093 286.765 160.692 287.644 163.046 289.001C165.4 290.358 167.465 292.166 169.121 294.322ZM232.884 245.174C236.226 249.526 237.705 255.031 236.996 260.477C236.287 265.923 233.448 270.865 229.103 274.216L213.162 286.503C208.813 289.855 203.313 291.34 197.873 290.632C192.432 289.924 187.496 287.08 184.15 282.726C180.805 278.372 179.324 272.865 180.034 267.416C180.743 261.967 183.585 257.022 187.934 253.67L203.875 241.383C206.029 239.717 208.49 238.492 211.117 237.779C213.744 237.066 216.485 236.88 219.184 237.23C221.883 237.58 224.486 238.46 226.844 239.82C229.202 241.179 231.269 242.992 232.926 245.153L232.884 245.174ZM296.647 196.026C298.304 198.181 299.521 200.643 300.227 203.27C300.934 205.897 301.116 208.638 300.765 211.336C300.414 214.034 299.535 216.637 298.18 218.995C296.824 221.353 295.018 223.421 292.864 225.081L276.923 237.368C272.568 240.623 267.109 242.032 261.726 241.29C256.343 240.548 251.469 237.714 248.157 233.402C244.845 229.089 243.361 223.644 244.025 218.243C244.69 212.841 247.449 207.918 251.708 204.537L267.649 192.25C269.8 190.577 272.26 189.347 274.887 188.628C277.515 187.91 280.257 187.718 282.958 188.064C285.659 188.409 288.265 189.286 290.627 190.642C292.988 191.999 295.059 193.81 296.72 195.97L296.647 196.026ZM361.175 146.416C362.832 148.571 364.048 151.033 364.754 153.66C365.461 156.287 365.644 159.028 365.292 161.726C364.941 164.424 364.063 167.026 362.707 169.385C361.351 171.743 359.545 173.811 357.391 175.471L340.736 188.239C338.583 189.94 336.115 191.196 333.473 191.933C330.832 192.67 328.071 192.874 325.351 192.533C322.631 192.192 320.006 191.313 317.628 189.947C315.251 188.58 313.168 186.755 311.502 184.575C309.836 182.395 308.619 179.906 307.922 177.251C307.225 174.595 307.062 171.828 307.443 169.109C307.824 166.39 308.74 163.773 310.139 161.412C311.539 159.05 313.393 156.99 315.593 155.352L332.238 142.569C334.392 140.91 336.851 139.692 339.474 138.985C342.098 138.277 344.835 138.094 347.529 138.446C350.223 138.798 352.821 139.678 355.174 141.036C357.528 142.394 359.592 144.203 361.247 146.36L361.175 146.416Z"/>
</mask>
<path d="M245.311 6.06019L181.359 55.3535C176.261 59.3385 172.838 65.0913 171.765 71.4774C170.693 77.8635 172.048 84.4196 175.564 89.8527C180.999 98.2418 183.089 108.371 181.419 118.233C179.748 128.095 174.439 136.97 166.544 143.1C158.608 149.17 148.686 152.036 138.742 151.128C128.799 150.22 119.561 145.606 112.857 138.198C108.513 133.403 102.533 130.412 96.0945 129.815C89.6562 129.219 83.2275 131.06 78.0759 134.975L14.0535 184.311C8.65329 188.482 5.12518 194.627 4.24349 201.399C3.3618 208.17 5.19858 215.014 9.35068 220.428L87.7641 322.495C92.627 328.798 98.8803 333.889 106.035 337.369C107.41 338.044 108.611 339.028 109.545 340.243C110.478 341.458 111.12 342.873 111.419 344.377C112.945 352.198 116.262 359.558 121.109 365.877L322.22 627.611C326.382 633.018 332.517 636.549 339.278 637.429C346.039 638.31 352.873 636.467 358.282 632.307L422.242 582.95C427.34 578.965 430.763 573.212 431.836 566.826C432.908 560.44 431.553 553.884 428.037 548.45C422.547 540.073 420.422 529.925 422.088 520.042C423.753 510.158 429.087 501.269 437.019 495.154C444.952 489.04 454.897 486.153 464.862 487.071C474.828 487.99 484.077 492.646 490.757 500.107C495.101 504.902 501.081 507.893 507.519 508.489C513.958 509.086 520.386 507.245 525.538 503.33L589.49 454.036C594.89 449.866 598.418 443.72 599.3 436.949C600.181 430.178 598.344 423.334 594.192 417.92L393.082 156.185C388.228 149.876 381.979 144.781 374.826 141.299C373.446 140.625 372.241 139.641 371.305 138.423C370.369 137.204 369.727 135.785 369.43 134.277C367.904 126.462 364.591 119.108 359.751 112.791L281.324 10.7364C277.159 5.34728 271.033 1.82987 264.284 0.953575C257.535 0.0772779 250.713 1.91337 245.311 6.06019ZM169.121 294.322C170.778 296.478 171.994 298.939 172.701 301.566C173.407 304.193 173.59 306.934 173.239 309.632C172.887 312.33 172.009 314.933 170.653 317.291C169.297 319.65 167.491 321.718 165.338 323.377L148.658 336.234C144.302 339.489 138.843 340.898 133.461 340.156C128.078 339.414 123.204 336.58 119.892 332.267C116.58 327.955 115.095 322.51 115.76 317.108C116.424 311.707 119.184 306.784 123.443 303.403L140.11 290.544C142.263 288.884 144.721 287.665 147.345 286.956C149.968 286.248 152.705 286.064 155.399 286.415C158.093 286.765 160.692 287.644 163.046 289.001C165.4 290.358 167.465 292.166 169.121 294.322ZM232.884 245.174C236.226 249.526 237.705 255.031 236.996 260.477C236.287 265.923 233.448 270.865 229.103 274.216L213.162 286.503C208.813 289.855 203.313 291.34 197.873 290.632C192.432 289.924 187.496 287.08 184.15 282.726C180.805 278.372 179.324 272.865 180.034 267.416C180.743 261.967 183.585 257.022 187.934 253.67L203.875 241.383C206.029 239.717 208.49 238.492 211.117 237.779C213.744 237.066 216.485 236.88 219.184 237.23C221.883 237.58 224.486 238.46 226.844 239.82C229.202 241.179 231.269 242.992 232.926 245.153L232.884 245.174ZM296.647 196.026C298.304 198.181 299.521 200.643 300.227 203.27C300.934 205.897 301.116 208.638 300.765 211.336C300.414 214.034 299.535 216.637 298.18 218.995C296.824 221.353 295.018 223.421 292.864 225.081L276.923 237.368C272.568 240.623 267.109 242.032 261.726 241.29C256.343 240.548 251.469 237.714 248.157 233.402C244.845 229.089 243.361 223.644 244.025 218.243C244.69 212.841 247.449 207.918 251.708 204.537L267.649 192.25C269.8 190.577 272.26 189.347 274.887 188.628C277.515 187.91 280.257 187.718 282.958 188.064C285.659 188.409 288.265 189.286 290.627 190.642C292.988 191.999 295.059 193.81 296.72 195.97L296.647 196.026ZM361.175 146.416C362.832 148.571 364.048 151.033 364.754 153.66C365.461 156.287 365.644 159.028 365.292 161.726C364.941 164.424 364.063 167.026 362.707 169.385C361.351 171.743 359.545 173.811 357.391 175.471L340.736 188.239C338.583 189.94 336.115 191.196 333.473 191.933C330.832 192.67 328.071 192.874 325.351 192.533C322.631 192.192 320.006 191.313 317.628 189.947C315.251 188.58 313.168 186.755 311.502 184.575C309.836 182.395 308.619 179.906 307.922 177.251C307.225 174.595 307.062 171.828 307.443 169.109C307.824 166.39 308.74 163.773 310.139 161.412C311.539 159.05 313.393 156.99 315.593 155.352L332.238 142.569C334.392 140.91 336.851 139.692 339.474 138.985C342.098 138.277 344.835 138.094 347.529 138.446C350.223 138.798 352.821 139.678 355.174 141.036C357.528 142.394 359.592 144.203 361.247 146.36L361.175 146.416Z" fill="black"/>
<path d="M245.311 6.06019L181.359 55.3535C176.261 59.3385 172.838 65.0913 171.765 71.4774C170.693 77.8635 172.048 84.4196 175.564 89.8527C180.999 98.2418 183.089 108.371 181.419 118.233C179.748 128.095 174.439 136.97 166.544 143.1C158.608 149.17 148.686 152.036 138.742 151.128C128.799 150.22 119.561 145.606 112.857 138.198C108.513 133.403 102.533 130.412 96.0945 129.815C89.6562 129.219 83.2275 131.06 78.0759 134.975L14.0535 184.311C8.65329 188.482 5.12518 194.627 4.24349 201.399C3.3618 208.17 5.19858 215.014 9.35068 220.428L87.7641 322.495C92.627 328.798 98.8803 333.889 106.035 337.369C107.41 338.044 108.611 339.028 109.545 340.243C110.478 341.458 111.12 342.873 111.419 344.377C112.945 352.198 116.262 359.558 121.109 365.877L322.22 627.611C326.382 633.018 332.517 636.549 339.278 637.429C346.039 638.31 352.873 636.467 358.282 632.307L422.242 582.95C427.34 578.965 430.763 573.212 431.836 566.826C432.908 560.44 431.553 553.884 428.037 548.45C422.547 540.073 420.422 529.925 422.088 520.042C423.753 510.158 429.087 501.269 437.019 495.154C444.952 489.04 454.897 486.153 464.862 487.071C474.828 487.99 484.077 492.646 490.757 500.107C495.101 504.902 501.081 507.893 507.519 508.489C513.958 509.086 520.386 507.245 525.538 503.33L589.49 454.036C594.89 449.866 598.418 443.72 599.3 436.949C600.181 430.178 598.344 423.334 594.192 417.92L393.082 156.185C388.228 149.876 381.979 144.781 374.826 141.299C373.446 140.625 372.241 139.641 371.305 138.423C370.369 137.204 369.727 135.785 369.43 134.277C367.904 126.462 364.591 119.108 359.751 112.791L281.324 10.7364C277.159 5.34728 271.033 1.82987 264.284 0.953575C257.535 0.0772779 250.713 1.91337 245.311 6.06019ZM169.121 294.322C170.778 296.478 171.994 298.939 172.701 301.566C173.407 304.193 173.59 306.934 173.239 309.632C172.887 312.33 172.009 314.933 170.653 317.291C169.297 319.65 167.491 321.718 165.338 323.377L148.658 336.234C144.302 339.489 138.843 340.898 133.461 340.156C128.078 339.414 123.204 336.58 119.892 332.267C116.58 327.955 115.095 322.51 115.76 317.108C116.424 311.707 119.184 306.784 123.443 303.403L140.11 290.544C142.263 288.884 144.721 287.665 147.345 286.956C149.968 286.248 152.705 286.064 155.399 286.415C158.093 286.765 160.692 287.644 163.046 289.001C165.4 290.358 167.465 292.166 169.121 294.322ZM232.884 245.174C236.226 249.526 237.705 255.031 236.996 260.477C236.287 265.923 233.448 270.865 229.103 274.216L213.162 286.503C208.813 289.855 203.313 291.34 197.873 290.632C192.432 289.924 187.496 287.08 184.15 282.726C180.805 278.372 179.324 272.865 180.034 267.416C180.743 261.967 183.585 257.022 187.934 253.67L203.875 241.383C206.029 239.717 208.49 238.492 211.117 237.779C213.744 237.066 216.485 236.88 219.184 237.23C221.883 237.58 224.486 238.46 226.844 239.82C229.202 241.179 231.269 242.992 232.926 245.153L232.884 245.174ZM296.647 196.026C298.304 198.181 299.521 200.643 300.227 203.27C300.934 205.897 301.116 208.638 300.765 211.336C300.414 214.034 299.535 216.637 298.18 218.995C296.824 221.353 295.018 223.421 292.864 225.081L276.923 237.368C272.568 240.623 267.109 242.032 261.726 241.29C256.343 240.548 251.469 237.714 248.157 233.402C244.845 229.089 243.361 223.644 244.025 218.243C244.69 212.841 247.449 207.918 251.708 204.537L267.649 192.25C269.8 190.577 272.26 189.347 274.887 188.628C277.515 187.91 280.257 187.718 282.958 188.064C285.659 188.409 288.265 189.286 290.627 190.642C292.988 191.999 295.059 193.81 296.72 195.97L296.647 196.026ZM361.175 146.416C362.832 148.571 364.048 151.033 364.754 153.66C365.461 156.287 365.644 159.028 365.292 161.726C364.941 164.424 364.063 167.026 362.707 169.385C361.351 171.743 359.545 173.811 357.391 175.471L340.736 188.239C338.583 189.94 336.115 191.196 333.473 191.933C330.832 192.67 328.071 192.874 325.351 192.533C322.631 192.192 320.006 191.313 317.628 189.947C315.251 188.58 313.168 186.755 311.502 184.575C309.836 182.395 308.619 179.906 307.922 177.251C307.225 174.595 307.062 171.828 307.443 169.109C307.824 166.39 308.74 163.773 310.139 161.412C311.539 159.05 313.393 156.99 315.593 155.352L332.238 142.569C334.392 140.91 336.851 139.692 339.474 138.985C342.098 138.277 344.835 138.094 347.529 138.446C350.223 138.798 352.821 139.678 355.174 141.036C357.528 142.394 359.592 144.203 361.247 146.36L361.175 146.416Z" stroke="white" stroke-width="2" mask="url(#path-1-inside-1_169_371)"/>
</g>
<defs>
<filter id="filter0_d_169_371" x="0.0273438" y="0.739502" width="603.488" height="644.905" filterUnits="userSpaceOnUse" color-interpolation-filters="sRGB">
<feFlood flood-opacity="0" result="BackgroundImageFix"/>
<feColorMatrix in="SourceAlpha" type="matrix" values="0 0 0 0 0 0 0 0 0 0 0 0 0 0 0 0 0 0 127 0" result="hardAlpha"/>
<feOffset dy="4"/>
<feGaussianBlur stdDeviation="2"/>
<feComposite in2="hardAlpha" operator="out"/>
<feColorMatrix type="matrix" values="0 0 0 0 0 0 0 0 0 0 0 0 0 0 0 0 0 0 0.25 0"/>
<feBlend mode="normal" in2="BackgroundImageFix" result="effect1_dropShadow_169_371"/>
<feBlend mode="normal" in="SourceGraphic" in2="effect1_dropShadow_169_371" result="shape"/>
</filter>
</defs>
</svg>
