<svg width="19" height="23" viewBox="0 0 19 23" fill="none" xmlns="http://www.w3.org/2000/svg">
<path d="M18.4319 12.1658L15.092 15.6544L16.1096 20.8716C16.1657 21.1548 16.1513 21.4518 16.068 21.7251C15.9848 21.9984 15.8365 22.2357 15.6419 22.407C15.4474 22.5783 15.2152 22.676 14.9748 22.6877C14.7344 22.6994 14.4965 22.6245 14.2912 22.4726L10.5432 19.6803L6.79289 22.4726C6.58763 22.6236 6.35003 22.6978 6.11004 22.6857C5.87004 22.6735 5.63837 22.5757 5.44419 22.4046C5.25002 22.2334 5.10202 21.9965 5.01885 21.7237C4.93567 21.4509 4.92102 21.1545 4.97676 20.8716L5.99801 15.6544L2.65817 12.1658C2.47655 11.9757 2.3452 11.7252 2.28053 11.4453C2.21585 11.1655 2.22071 10.8688 2.29451 10.5923C2.3683 10.3158 2.50775 10.0717 2.69545 9.89057C2.88314 9.70943 3.11076 9.59924 3.34989 9.57376L7.72879 9.1461L9.41801 4.19751C9.50944 3.92781 9.66506 3.69712 9.86508 3.53477C10.0651 3.37241 10.3005 3.28572 10.5413 3.28572C10.7821 3.28572 11.0175 3.37241 11.2175 3.53477C11.4176 3.69712 11.5732 3.92781 11.6646 4.19751L13.3531 9.1461L17.732 9.57376C17.9716 9.59829 18.1999 9.70786 18.3883 9.88876C18.5766 10.0696 18.7167 10.3138 18.791 10.5907C18.8652 10.8675 18.8703 11.1647 18.8057 11.4451C18.741 11.7254 18.6094 11.9764 18.4274 12.1667L18.4319 12.1658Z" fill="#FFD233"/>
</svg>
