<svg width="185" height="160" viewBox="0 0 185 160" fill="none" xmlns="http://www.w3.org/2000/svg">
<path d="M29.0417 111.737V104.75C29.0417 101.175 31.9292 98.25 35.4584 98.25H67.5418C71.0709 98.25 73.9584 101.175 73.9584 104.75V111.77C70.2368 113.102 67.5418 116.678 67.5418 120.903V127.5H35.4584V120.87C35.4584 116.677 32.7634 113.07 29.0417 111.737ZM77.1668 114.5C73.6376 114.5 70.7501 117.425 70.7501 121V130.75H32.2501V121C32.2501 119.276 31.574 117.623 30.3707 116.404C29.1673 115.185 27.5352 114.5 25.8334 114.5C24.1316 114.5 22.4995 115.185 21.2961 116.404C20.0928 117.623 19.4167 119.276 19.4167 121V137.25C19.4167 140.825 22.3042 143.75 25.8334 143.75V150.25H32.2501V143.75H70.7501V150.25H77.1668V143.75C80.6959 143.75 83.5834 140.825 83.5834 137.25V121C83.5834 117.425 80.6959 114.5 77.1668 114.5Z" fill="#F8F8F8"/>
<path d="M100.042 111.737V104.75C100.042 101.175 102.929 98.25 106.458 98.25H138.542C142.071 98.25 144.958 101.175 144.958 104.75V111.77C141.237 113.102 138.542 116.678 138.542 120.903V127.5H106.458V120.87C106.458 116.677 103.763 113.07 100.042 111.737ZM148.167 114.5C144.638 114.5 141.75 117.425 141.75 121V130.75H103.25V121C103.25 119.276 102.574 117.623 101.371 116.404C100.167 115.185 98.5352 114.5 96.8334 114.5C95.1316 114.5 93.4995 115.185 92.2961 116.404C91.0928 117.623 90.4167 119.276 90.4167 121V137.25C90.4167 140.825 93.3042 143.75 96.8334 143.75V150.25H103.25V143.75H141.75V150.25H148.167V143.75C151.696 143.75 154.583 140.825 154.583 137.25V121C154.583 117.425 151.696 114.5 148.167 114.5Z" fill="#F8F8F8"/>
<path d="M29.0417 33.7375V26.75C29.0417 23.175 31.9292 20.25 35.4584 20.25H67.5418C71.0709 20.25 73.9584 23.175 73.9584 26.75V33.77C70.2368 35.1025 67.5418 38.6775 67.5418 42.9025V49.5H35.4584V42.87C35.4584 38.6775 32.7634 35.07 29.0417 33.7375ZM77.1668 36.5C73.6376 36.5 70.7501 39.425 70.7501 43V52.75H32.2501V43C32.2501 41.2761 31.574 39.6228 30.3707 38.4038C29.1673 37.1848 27.5352 36.5 25.8334 36.5C24.1316 36.5 22.4995 37.1848 21.2961 38.4038C20.0928 39.6228 19.4167 41.2761 19.4167 43V59.25C19.4167 62.825 22.3042 65.75 25.8334 65.75V72.25H32.2501V65.75H70.7501V72.25H77.1668V65.75C80.6959 65.75 83.5834 62.825 83.5834 59.25V43C83.5834 39.425 80.6959 36.5 77.1668 36.5Z" fill="#F8F8F8"/>
<path d="M100.042 33.7375V26.75C100.042 23.175 102.929 20.25 106.458 20.25H138.542C142.071 20.25 144.958 23.175 144.958 26.75V33.77C141.237 35.1025 138.542 38.6775 138.542 42.9025V49.5H106.458V42.87C106.458 38.6775 103.763 35.07 100.042 33.7375ZM148.167 36.5C144.638 36.5 141.75 39.425 141.75 43V52.75H103.25V43C103.25 41.2761 102.574 39.6228 101.371 38.4038C100.167 37.1848 98.5352 36.5 96.8334 36.5C95.1316 36.5 93.4995 37.1848 92.2961 38.4038C91.0928 39.6228 90.4167 41.2761 90.4167 43V59.25C90.4167 62.825 93.3042 65.75 96.8334 65.75V72.25H103.25V65.75H141.75V72.25H148.167V65.75C151.696 65.75 154.583 62.825 154.583 59.25V43C154.583 39.425 151.696 36.5 148.167 36.5Z" fill="#F8F8F8"/>
</svg>
