<svg width="198" height="160" viewBox="0 0 198 160" fill="none" xmlns="http://www.w3.org/2000/svg">
<path d="M36.0833 110.5V103.333C36.0833 99.6666 39.1583 96.6666 42.9166 96.6666H77.0833C80.8416 96.6666 83.9166 99.6666 83.9166 103.333V110.533C79.9533 111.9 77.0833 115.567 77.0833 119.9V126.667H42.9166V119.867C42.9166 115.567 40.0466 111.867 36.0833 110.5ZM87.3333 113.333C83.5749 113.333 80.4999 116.333 80.4999 120V130H39.4999V120C39.4999 118.232 38.78 116.536 37.4985 115.286C36.217 114.036 34.4789 113.333 32.6666 113.333C30.8543 113.333 29.1162 114.036 27.8347 115.286C26.5532 116.536 25.8333 118.232 25.8333 120V136.667C25.8333 140.333 28.9083 143.333 32.6666 143.333V150H39.4999V143.333H80.4999V150H87.3333V143.333C91.0916 143.333 94.1666 140.333 94.1666 136.667V120C94.1666 116.333 91.0916 113.333 87.3333 113.333Z" fill="#808080"/>
<path d="M111.042 111.737V104.75C111.042 101.175 113.929 98.25 117.458 98.25H149.542C153.071 98.25 155.958 101.175 155.958 104.75V111.77C152.237 113.102 149.542 116.678 149.542 120.903V127.5H117.458V120.87C117.458 116.677 114.763 113.07 111.042 111.737ZM159.167 114.5C155.638 114.5 152.75 117.425 152.75 121V130.75H114.25V121C114.25 119.276 113.574 117.623 112.371 116.404C111.167 115.185 109.535 114.5 107.833 114.5C106.132 114.5 104.5 115.185 103.296 116.404C102.093 117.623 101.417 119.276 101.417 121V137.25C101.417 140.825 104.304 143.75 107.833 143.75V150.25H114.25V143.75H152.75V150.25H159.167V143.75C162.696 143.75 165.583 140.825 165.583 137.25V121C165.583 117.425 162.696 114.5 159.167 114.5Z" fill="#808080"/>
<path d="M31.0826 33.7375V26.75C31.0826 23.175 34.173 20.25 37.9502 20.25H72.288C76.0652 20.25 79.1556 23.175 79.1556 26.75V33.77C75.1724 35.1025 72.288 38.6775 72.288 42.9025V49.5H37.9502V42.87C37.9502 38.6775 35.0658 35.07 31.0826 33.7375ZM82.5894 36.5C78.8122 36.5 75.7218 39.425 75.7218 43V52.75H34.5164V43C34.5164 41.2761 33.7928 39.6228 32.5049 38.4038C31.217 37.1848 29.4702 36.5 27.6488 36.5C25.8274 36.5 24.0806 37.1848 22.7927 38.4038C21.5048 39.6228 20.7812 41.2761 20.7812 43V59.25C20.7812 62.825 23.8717 65.75 27.6488 65.75V72.25H34.5164V65.75H75.7218V72.25H82.5894V65.75C86.3665 65.75 89.4569 62.825 89.4569 59.25V43C89.4569 39.425 86.3665 36.5 82.5894 36.5Z" fill="#F8F8F8"/>
<path d="M107.072 33.7375V26.75C107.072 23.175 110.162 20.25 113.939 20.25H148.277C152.054 20.25 155.145 23.175 155.145 26.75V33.77C151.161 35.1025 148.277 38.6775 148.277 42.9025V49.5H113.939V42.87C113.939 38.6775 111.055 35.07 107.072 33.7375ZM158.578 36.5C154.801 36.5 151.711 39.425 151.711 43V52.75H110.505V43C110.505 41.2761 109.782 39.6228 108.494 38.4038C107.206 37.1848 105.459 36.5 103.638 36.5C101.816 36.5 100.07 37.1848 98.7817 38.4038C97.4938 39.6228 96.7703 41.2761 96.7703 43V59.25C96.7703 62.825 99.8607 65.75 103.638 65.75V72.25H110.505V65.75H151.711V72.25H158.578V65.75C162.356 65.75 165.446 62.825 165.446 59.25V43C165.446 39.425 162.356 36.5 158.578 36.5Z" fill="#FF0000"/>
</svg>
