<svg width="185" height="160" viewBox="0 0 185 160" fill="none" xmlns="http://www.w3.org/2000/svg">
<path d="M29.0415 111.737V104.75C29.0415 101.175 31.929 98.25 35.4582 98.25H67.5415C71.0707 98.25 73.9582 101.175 73.9582 104.75V111.77C70.2365 113.102 67.5415 116.678 67.5415 120.903V127.5H35.4582V120.87C35.4582 116.677 32.7632 113.07 29.0415 111.737ZM77.1665 114.5C73.6373 114.5 70.7498 117.425 70.7498 121V130.75H32.2498V121C32.2498 119.276 31.5738 117.623 30.3704 116.404C29.1671 115.185 27.535 114.5 25.8332 114.5C24.1314 114.5 22.4993 115.185 21.2959 116.404C20.0925 117.623 19.4165 119.276 19.4165 121V137.25C19.4165 140.825 22.304 143.75 25.8332 143.75V150.25H32.2498V143.75H70.7498V150.25H77.1665V143.75C80.6957 143.75 83.5832 140.825 83.5832 137.25V121C83.5832 117.425 80.6957 114.5 77.1665 114.5Z" fill="#F8F8F8"/>
<path d="M100.042 111.737V104.75C100.042 101.175 102.929 98.25 106.458 98.25H138.542C142.071 98.25 144.958 101.175 144.958 104.75V111.77C141.237 113.102 138.542 116.678 138.542 120.903V127.5H106.458V120.87C106.458 116.677 103.763 113.07 100.042 111.737ZM148.167 114.5C144.637 114.5 141.75 117.425 141.75 121V130.75H103.25V121C103.25 119.276 102.574 117.623 101.37 116.404C100.167 115.185 98.535 114.5 96.8332 114.5C95.1314 114.5 93.4993 115.185 92.2959 116.404C91.0925 117.623 90.4165 119.276 90.4165 121V137.25C90.4165 140.825 93.304 143.75 96.8332 143.75V150.25H103.25V143.75H141.75V150.25H148.167V143.75C151.696 143.75 154.583 140.825 154.583 137.25V121C154.583 117.425 151.696 114.5 148.167 114.5Z" fill="#F8F8F8"/>
<path d="M29.0415 33.7375V26.75C29.0415 23.175 31.929 20.25 35.4582 20.25H67.5415C71.0707 20.25 73.9582 23.175 73.9582 26.75V33.77C70.2365 35.1025 67.5415 38.6775 67.5415 42.9025V49.5H35.4582V42.87C35.4582 38.6775 32.7632 35.07 29.0415 33.7375ZM77.1665 36.5C73.6373 36.5 70.7498 39.425 70.7498 43V52.75H32.2498V43C32.2498 41.2761 31.5738 39.6228 30.3704 38.4038C29.1671 37.1848 27.535 36.5 25.8332 36.5C24.1314 36.5 22.4993 37.1848 21.2959 38.4038C20.0925 39.6228 19.4165 41.2761 19.4165 43V59.25C19.4165 62.825 22.304 65.75 25.8332 65.75V72.25H32.2498V65.75H70.7498V72.25H77.1665V65.75C80.6957 65.75 83.5832 62.825 83.5832 59.25V43C83.5832 39.425 80.6957 36.5 77.1665 36.5Z" fill="#808080"/>
<path d="M100.042 33.7375V26.75C100.042 23.175 102.929 20.25 106.458 20.25H138.542C142.071 20.25 144.958 23.175 144.958 26.75V33.77C141.237 35.1025 138.542 38.6775 138.542 42.9025V49.5H106.458V42.87C106.458 38.6775 103.763 35.07 100.042 33.7375ZM148.167 36.5C144.637 36.5 141.75 39.425 141.75 43V52.75H103.25V43C103.25 41.2761 102.574 39.6228 101.37 38.4038C100.167 37.1848 98.535 36.5 96.8332 36.5C95.1314 36.5 93.4993 37.1848 92.2959 38.4038C91.0925 39.6228 90.4165 41.2761 90.4165 43V59.25C90.4165 62.825 93.304 65.75 96.8332 65.75V72.25H103.25V65.75H141.75V72.25H148.167V65.75C151.696 65.75 154.583 62.825 154.583 59.25V43C154.583 39.425 151.696 36.5 148.167 36.5Z" fill="#808080"/>
</svg>
