<svg width="171" height="110" viewBox="0 0 171 110" fill="none" xmlns="http://www.w3.org/2000/svg">
<path d="M15.3188 19.7908L12.084 19.8046C11.0153 19.8275 9.92513 19.8641 8.8635 19.9879C7.25909 20.151 5.7378 20.5568 4.4248 21.1719C3.11179 21.7871 2.04459 22.594 1.311 23.5262C0.81225 24.1587 0.49875 24.8004 0.3135 25.4971C0.114 26.1754 0.049875 26.8721 0.0285 27.5596L0 28.5175V81.4871C0 81.8048 0.007125 82.1211 0.021375 82.4358C0.049875 83.1233 0.114 83.8246 0.306375 84.5075C0.491625 85.1919 0.828875 85.8473 1.31813 86.4737C2.30224 87.7173 3.87373 88.7282 5.80687 89.3612C6.79012 89.6821 7.78762 89.8883 8.87063 90.0121C9.92513 90.1358 11.0081 90.1771 12.0769 90.1954L13.5589 90.2091H157.441L158.916 90.1954C159.985 90.1771 161.075 90.1358 162.137 90.0121C163.198 89.8883 164.21 89.6866 165.186 89.3658C167.126 88.735 168.701 87.7216 169.682 86.4737C170.181 85.8412 170.501 85.1996 170.686 84.5029C170.879 83.8246 170.943 83.1279 170.971 82.4404C170.986 82.1226 170.993 81.8048 170.993 81.4871L171 80.3596V28.5129C171 28.1951 170.991 27.8789 170.971 27.5641C170.958 26.8699 170.863 26.1774 170.686 25.4925C170.341 24.1133 169.33 22.8392 167.795 21.8511C166.26 20.8629 164.28 20.211 162.137 19.9879C161.072 19.8746 159.995 19.8133 158.916 19.8046C157.84 19.7857 156.764 19.7811 155.688 19.7908H15.3188ZM15.3188 22.1375H157.405C157.871 22.1375 158.339 22.1421 158.809 22.1512C159.628 22.1696 160.59 22.1971 161.481 22.2979C162.258 22.3896 162.906 22.5271 163.526 22.7287C164.775 23.1376 165.79 23.7907 166.426 24.5941C166.752 25.0097 166.978 25.4548 167.096 25.9141C167.252 26.4779 167.295 27.0966 167.316 27.6283C167.331 27.9247 167.338 28.2257 167.338 28.5312V81.4779C167.338 81.7743 167.331 82.0737 167.316 82.3762C167.295 82.9033 167.252 83.5221 167.088 84.095C166.933 84.769 166.528 85.4092 165.908 85.9619C165.288 86.5146 164.471 86.9635 163.526 87.2712C162.884 87.4802 162.197 87.6254 161.488 87.7021C160.608 87.7865 159.72 87.8355 158.831 87.8487L157.405 87.8625H13.5802C13.1053 87.8625 12.6398 87.8579 12.1838 87.8487C11.2892 87.8359 10.3969 87.7869 9.51188 87.7021C8.73525 87.6104 8.08687 87.4729 7.45988 87.2712C6.20454 86.8696 5.18843 86.2143 4.56712 85.4058C4.24096 84.9902 4.01512 84.5451 3.89737 84.0858C3.75506 83.5204 3.67885 82.9489 3.66937 82.3762L3.65513 81.4733V28.5266L3.66937 27.6237C3.69787 27.1012 3.74062 26.4871 3.89737 25.905C4.03988 25.41 4.25362 24.9929 4.56712 24.5896C5.20399 23.7878 6.21913 23.1364 7.467 22.7287C8.11079 22.5194 8.80028 22.3741 9.51188 22.2979C10.4025 22.1971 11.3644 22.165 12.1838 22.1512L13.5802 22.1375H15.3188ZM48.8775 39.0958C46.74 39.1691 44.118 40.0079 42.6075 41.1858C41.2466 42.1941 40.0425 43.8441 40.356 45.3933C42.7643 45.5308 45.1654 44.6187 46.683 43.4775C48.1436 42.295 49.1411 40.7137 48.8775 39.1004V39.0958ZM64.6024 41.0208V66.1971H70.6729V57.5941H79.0804C86.7611 57.5941 92.1547 54.2071 92.1547 49.2891C92.1547 44.385 86.868 41.0162 79.2728 41.0162L64.6024 41.0208ZM70.6729 44.3162H77.6696C82.935 44.3162 85.9417 46.1312 85.9417 49.3075C85.9417 52.4791 82.935 54.3125 77.6482 54.3125H70.6729V44.3162ZM48.2006 45.6912C44.9944 45.7371 42.2869 46.9746 40.7194 46.9746C39.045 46.9746 36.4943 45.7646 33.7298 45.7966C31.9321 45.8273 30.178 46.1593 28.641 46.7598C27.104 47.3603 25.8372 48.2084 24.966 49.2204C21.2111 53.3821 23.9756 59.5558 27.6308 62.9475C29.4049 64.625 31.5424 66.4721 34.3568 66.4033C37.0144 66.3391 38.0618 65.2941 41.2894 65.2941C44.5241 65.2941 45.4646 66.4033 48.2719 66.3712C51.1931 66.3391 53.0243 64.6937 54.7913 63.0116C56.829 61.1004 57.6626 59.2533 57.7125 59.1571C57.6626 59.1204 52.0838 57.7454 52.0339 53.6158C51.9769 50.16 56.4157 48.5146 56.6224 48.4137C54.1144 46.0304 50.2099 45.7646 48.8561 45.6958L48.2006 45.6912ZM106.654 47.5108C99.6004 47.5108 95.2114 49.9537 94.8836 53.2675H100.42C100.933 51.6266 103.049 50.5816 106.44 50.5816C110.017 50.5816 112.162 51.8008 112.162 53.8404V55.2566L104.346 55.55C97.5698 55.7975 93.7436 57.7683 93.7436 60.9766C93.7436 64.2766 97.6481 66.5087 103.234 66.5087C106.982 66.5087 110.587 65.2208 112.24 63.1766H112.376V66.1971H117.99V53.5471C117.99 49.8666 113.573 47.5108 106.654 47.5108ZM120.477 47.8408L130.779 66.2154C130.779 66.2291 130.259 67.3154 130.259 67.3475C129.369 69.2266 127.908 69.9646 125.193 69.9646C124.702 69.9646 123.726 69.9646 123.291 69.8958V72.9483C123.719 72.9987 125.193 73.0354 125.678 73.0354C131.592 73.0354 134.413 71.6054 136.85 67.155L147.537 47.8408H141.353L134.142 62.7779H134.036L126.818 47.8362L120.477 47.8408ZM112.162 57.8737V59.3221C112.162 61.71 108.956 63.525 104.866 63.525C101.716 63.525 99.6574 62.48 99.6574 60.8712C99.6574 59.3037 101.638 58.3046 105.136 58.1533L112.162 57.8737Z" fill="black"/>
</svg>
