<svg width="574" height="642" viewBox="0 0 574 642" fill="none" xmlns="http://www.w3.org/2000/svg">
<g filter="url(#filter0_d_169_373)">
<mask id="path-1-inside-1_169_373" fill="white">
<path d="M562.345 218.505L510.457 160.239C506.271 155.602 500.689 152.894 494.813 152.649C488.936 152.405 483.192 154.642 478.711 158.919C471.794 165.53 462.918 168.982 453.841 168.591C444.764 168.2 436.15 163.994 429.705 156.806C423.307 149.57 419.564 139.899 419.216 129.709C418.867 119.52 421.939 109.555 427.823 101.789C431.632 96.758 433.624 90.307 433.407 83.7081C433.189 77.1093 430.777 70.8415 426.648 66.1406L374.713 7.80917C370.324 2.89021 364.377 0.127563 358.176 0.127563C351.975 0.127563 346.028 2.89021 341.639 7.80917L258.922 100.68C253.817 106.436 249.965 113.44 247.67 121.145C247.224 122.626 246.479 123.972 245.494 125.078C244.509 126.184 243.31 127.02 241.991 127.522C235.127 130.099 228.889 134.428 223.767 140.171L11.6557 378.355C7.27517 383.283 4.81494 389.962 4.81494 396.925C4.81494 403.888 7.27517 410.567 11.6557 415.495L63.6017 473.761C67.788 478.398 73.3697 481.106 79.2462 481.35C85.1227 481.595 90.8675 479.358 95.3478 475.081C102.248 468.416 111.137 464.926 120.232 465.309C129.328 465.693 137.958 469.922 144.394 477.149C150.83 484.376 154.596 494.067 154.938 504.281C155.279 514.494 152.171 524.475 146.236 532.224C142.427 537.255 140.435 543.706 140.652 550.305C140.87 556.904 143.282 563.172 147.411 567.873L199.299 626.138C203.687 631.057 209.635 633.82 215.836 633.82C222.037 633.82 227.984 631.057 232.373 626.138L444.484 387.954C449.596 382.206 453.452 375.205 455.748 367.502C456.193 366.016 456.938 364.665 457.926 363.557C458.913 362.448 460.115 361.611 461.439 361.112C468.297 358.535 474.531 354.21 479.652 348.476L562.356 255.592C566.721 250.664 569.17 243.996 569.168 237.046C569.166 230.095 566.712 223.429 562.345 218.505ZM293.831 179.357C292.084 181.32 290.01 182.876 287.728 183.938C285.445 185 282.998 185.546 280.527 185.546C278.057 185.546 275.61 185 273.327 183.938C271.044 182.876 268.97 181.32 267.223 179.357L253.69 164.161C250.248 160.179 248.339 154.836 248.377 149.287C248.414 143.738 250.394 138.428 253.889 134.505C257.384 130.582 262.114 128.361 267.055 128.322C271.997 128.282 276.754 130.428 280.298 134.295L293.831 149.479C295.579 151.44 296.965 153.769 297.911 156.333C298.856 158.896 299.343 161.643 299.343 164.418C299.343 167.193 298.856 169.94 297.911 172.503C296.965 175.067 295.579 177.396 293.831 179.357ZM345.566 237.451C342.038 241.41 337.255 243.634 332.268 243.634C327.28 243.634 322.497 241.41 318.97 237.451L306.036 222.928C302.508 218.966 300.525 213.592 300.525 207.988C300.525 202.385 302.508 197.011 306.036 193.049C309.564 189.087 314.35 186.861 319.34 186.861C324.33 186.861 329.116 189.087 332.644 193.049L345.578 207.572C347.331 209.534 348.722 211.865 349.672 214.431C350.622 216.998 351.112 219.75 351.113 222.529C351.114 225.308 350.626 228.06 349.679 230.628C348.731 233.195 347.341 235.527 345.589 237.491L345.566 237.451ZM397.3 295.545C395.553 297.507 393.479 299.064 391.196 300.125C388.914 301.187 386.467 301.734 383.996 301.734C381.525 301.734 379.079 301.187 376.796 300.125C374.513 299.064 372.439 297.507 370.692 295.545L357.759 281.021C354.316 277.04 352.408 271.697 352.445 266.148C352.482 260.599 354.462 255.289 357.957 251.366C361.453 247.443 366.182 245.222 371.124 245.183C376.065 245.143 380.822 247.289 384.367 251.156L397.3 265.679C399.058 267.638 400.455 269.967 401.41 272.532C402.365 275.098 402.859 277.851 402.865 280.631C402.87 283.412 402.387 286.167 401.442 288.738C400.497 291.308 399.109 293.644 397.359 295.611L397.3 295.545ZM449.54 354.352C447.793 356.314 445.719 357.87 443.436 358.932C441.154 359.994 438.707 360.541 436.236 360.541C433.765 360.541 431.319 359.994 429.036 358.932C426.753 357.87 424.679 356.314 422.932 354.352L409.481 339.168C407.697 337.212 406.277 334.878 405.304 332.3C404.33 329.722 403.823 326.953 403.811 324.153C403.799 321.354 404.283 318.579 405.234 315.991C406.186 313.403 407.586 311.053 409.353 309.079C411.121 307.104 413.22 305.543 415.529 304.487C417.838 303.431 420.311 302.901 422.805 302.928C425.298 302.955 427.761 303.539 430.052 304.644C432.343 305.75 434.415 307.356 436.148 309.369L449.611 324.539C451.357 326.501 452.742 328.831 453.687 331.395C454.632 333.959 455.117 336.706 455.116 339.481C455.115 342.256 454.627 345.003 453.681 347.566C452.734 350.128 451.347 352.457 449.599 354.418L449.54 354.352Z"/>
</mask>
<path d="M562.345 218.505L510.457 160.239C506.271 155.602 500.689 152.894 494.813 152.649C488.936 152.405 483.192 154.642 478.711 158.919C471.794 165.53 462.918 168.982 453.841 168.591C444.764 168.2 436.15 163.994 429.705 156.806C423.307 149.57 419.564 139.899 419.216 129.709C418.867 119.52 421.939 109.555 427.823 101.789C431.632 96.758 433.624 90.307 433.407 83.7081C433.189 77.1093 430.777 70.8415 426.648 66.1406L374.713 7.80917C370.324 2.89021 364.377 0.127563 358.176 0.127563C351.975 0.127563 346.028 2.89021 341.639 7.80917L258.922 100.68C253.817 106.436 249.965 113.44 247.67 121.145C247.224 122.626 246.479 123.972 245.494 125.078C244.509 126.184 243.31 127.02 241.991 127.522C235.127 130.099 228.889 134.428 223.767 140.171L11.6557 378.355C7.27517 383.283 4.81494 389.962 4.81494 396.925C4.81494 403.888 7.27517 410.567 11.6557 415.495L63.6017 473.761C67.788 478.398 73.3697 481.106 79.2462 481.35C85.1227 481.595 90.8675 479.358 95.3478 475.081C102.248 468.416 111.137 464.926 120.232 465.309C129.328 465.693 137.958 469.922 144.394 477.149C150.83 484.376 154.596 494.067 154.938 504.281C155.279 514.494 152.171 524.475 146.236 532.224C142.427 537.255 140.435 543.706 140.652 550.305C140.87 556.904 143.282 563.172 147.411 567.873L199.299 626.138C203.687 631.057 209.635 633.82 215.836 633.82C222.037 633.82 227.984 631.057 232.373 626.138L444.484 387.954C449.596 382.206 453.452 375.205 455.748 367.502C456.193 366.016 456.938 364.665 457.926 363.557C458.913 362.448 460.115 361.611 461.439 361.112C468.297 358.535 474.531 354.21 479.652 348.476L562.356 255.592C566.721 250.664 569.17 243.996 569.168 237.046C569.166 230.095 566.712 223.429 562.345 218.505ZM293.831 179.357C292.084 181.32 290.01 182.876 287.728 183.938C285.445 185 282.998 185.546 280.527 185.546C278.057 185.546 275.61 185 273.327 183.938C271.044 182.876 268.97 181.32 267.223 179.357L253.69 164.161C250.248 160.179 248.339 154.836 248.377 149.287C248.414 143.738 250.394 138.428 253.889 134.505C257.384 130.582 262.114 128.361 267.055 128.322C271.997 128.282 276.754 130.428 280.298 134.295L293.831 149.479C295.579 151.44 296.965 153.769 297.911 156.333C298.856 158.896 299.343 161.643 299.343 164.418C299.343 167.193 298.856 169.94 297.911 172.503C296.965 175.067 295.579 177.396 293.831 179.357ZM345.566 237.451C342.038 241.41 337.255 243.634 332.268 243.634C327.28 243.634 322.497 241.41 318.97 237.451L306.036 222.928C302.508 218.966 300.525 213.592 300.525 207.988C300.525 202.385 302.508 197.011 306.036 193.049C309.564 189.087 314.35 186.861 319.34 186.861C324.33 186.861 329.116 189.087 332.644 193.049L345.578 207.572C347.331 209.534 348.722 211.865 349.672 214.431C350.622 216.998 351.112 219.75 351.113 222.529C351.114 225.308 350.626 228.06 349.679 230.628C348.731 233.195 347.341 235.527 345.589 237.491L345.566 237.451ZM397.3 295.545C395.553 297.507 393.479 299.064 391.196 300.125C388.914 301.187 386.467 301.734 383.996 301.734C381.525 301.734 379.079 301.187 376.796 300.125C374.513 299.064 372.439 297.507 370.692 295.545L357.759 281.021C354.316 277.04 352.408 271.697 352.445 266.148C352.482 260.599 354.462 255.289 357.957 251.366C361.453 247.443 366.182 245.222 371.124 245.183C376.065 245.143 380.822 247.289 384.367 251.156L397.3 265.679C399.058 267.638 400.455 269.967 401.41 272.532C402.365 275.098 402.859 277.851 402.865 280.631C402.87 283.412 402.387 286.167 401.442 288.738C400.497 291.308 399.109 293.644 397.359 295.611L397.3 295.545ZM449.54 354.352C447.793 356.314 445.719 357.87 443.436 358.932C441.154 359.994 438.707 360.541 436.236 360.541C433.765 360.541 431.319 359.994 429.036 358.932C426.753 357.87 424.679 356.314 422.932 354.352L409.481 339.168C407.697 337.212 406.277 334.878 405.304 332.3C404.33 329.722 403.823 326.953 403.811 324.153C403.799 321.354 404.283 318.579 405.234 315.991C406.186 313.403 407.586 311.053 409.353 309.079C411.121 307.104 413.22 305.543 415.529 304.487C417.838 303.431 420.311 302.901 422.805 302.928C425.298 302.955 427.761 303.539 430.052 304.644C432.343 305.75 434.415 307.356 436.148 309.369L449.611 324.539C451.357 326.501 452.742 328.831 453.687 331.395C454.632 333.959 455.117 336.706 455.116 339.481C455.115 342.256 454.627 345.003 453.681 347.566C452.734 350.128 451.347 352.457 449.599 354.418L449.54 354.352Z" fill="white"/>
<path d="M562.345 218.505L510.457 160.239C506.271 155.602 500.689 152.894 494.813 152.649C488.936 152.405 483.192 154.642 478.711 158.919C471.794 165.53 462.918 168.982 453.841 168.591C444.764 168.2 436.15 163.994 429.705 156.806C423.307 149.57 419.564 139.899 419.216 129.709C418.867 119.52 421.939 109.555 427.823 101.789C431.632 96.758 433.624 90.307 433.407 83.7081C433.189 77.1093 430.777 70.8415 426.648 66.1406L374.713 7.80917C370.324 2.89021 364.377 0.127563 358.176 0.127563C351.975 0.127563 346.028 2.89021 341.639 7.80917L258.922 100.68C253.817 106.436 249.965 113.44 247.67 121.145C247.224 122.626 246.479 123.972 245.494 125.078C244.509 126.184 243.31 127.02 241.991 127.522C235.127 130.099 228.889 134.428 223.767 140.171L11.6557 378.355C7.27517 383.283 4.81494 389.962 4.81494 396.925C4.81494 403.888 7.27517 410.567 11.6557 415.495L63.6017 473.761C67.788 478.398 73.3697 481.106 79.2462 481.35C85.1227 481.595 90.8675 479.358 95.3478 475.081C102.248 468.416 111.137 464.926 120.232 465.309C129.328 465.693 137.958 469.922 144.394 477.149C150.83 484.376 154.596 494.067 154.938 504.281C155.279 514.494 152.171 524.475 146.236 532.224C142.427 537.255 140.435 543.706 140.652 550.305C140.87 556.904 143.282 563.172 147.411 567.873L199.299 626.138C203.687 631.057 209.635 633.82 215.836 633.82C222.037 633.82 227.984 631.057 232.373 626.138L444.484 387.954C449.596 382.206 453.452 375.205 455.748 367.502C456.193 366.016 456.938 364.665 457.926 363.557C458.913 362.448 460.115 361.611 461.439 361.112C468.297 358.535 474.531 354.21 479.652 348.476L562.356 255.592C566.721 250.664 569.17 243.996 569.168 237.046C569.166 230.095 566.712 223.429 562.345 218.505ZM293.831 179.357C292.084 181.32 290.01 182.876 287.728 183.938C285.445 185 282.998 185.546 280.527 185.546C278.057 185.546 275.61 185 273.327 183.938C271.044 182.876 268.97 181.32 267.223 179.357L253.69 164.161C250.248 160.179 248.339 154.836 248.377 149.287C248.414 143.738 250.394 138.428 253.889 134.505C257.384 130.582 262.114 128.361 267.055 128.322C271.997 128.282 276.754 130.428 280.298 134.295L293.831 149.479C295.579 151.44 296.965 153.769 297.911 156.333C298.856 158.896 299.343 161.643 299.343 164.418C299.343 167.193 298.856 169.94 297.911 172.503C296.965 175.067 295.579 177.396 293.831 179.357ZM345.566 237.451C342.038 241.41 337.255 243.634 332.268 243.634C327.28 243.634 322.497 241.41 318.97 237.451L306.036 222.928C302.508 218.966 300.525 213.592 300.525 207.988C300.525 202.385 302.508 197.011 306.036 193.049C309.564 189.087 314.35 186.861 319.34 186.861C324.33 186.861 329.116 189.087 332.644 193.049L345.578 207.572C347.331 209.534 348.722 211.865 349.672 214.431C350.622 216.998 351.112 219.75 351.113 222.529C351.114 225.308 350.626 228.06 349.679 230.628C348.731 233.195 347.341 235.527 345.589 237.491L345.566 237.451ZM397.3 295.545C395.553 297.507 393.479 299.064 391.196 300.125C388.914 301.187 386.467 301.734 383.996 301.734C381.525 301.734 379.079 301.187 376.796 300.125C374.513 299.064 372.439 297.507 370.692 295.545L357.759 281.021C354.316 277.04 352.408 271.697 352.445 266.148C352.482 260.599 354.462 255.289 357.957 251.366C361.453 247.443 366.182 245.222 371.124 245.183C376.065 245.143 380.822 247.289 384.367 251.156L397.3 265.679C399.058 267.638 400.455 269.967 401.41 272.532C402.365 275.098 402.859 277.851 402.865 280.631C402.87 283.412 402.387 286.167 401.442 288.738C400.497 291.308 399.109 293.644 397.359 295.611L397.3 295.545ZM449.54 354.352C447.793 356.314 445.719 357.87 443.436 358.932C441.154 359.994 438.707 360.541 436.236 360.541C433.765 360.541 431.319 359.994 429.036 358.932C426.753 357.87 424.679 356.314 422.932 354.352L409.481 339.168C407.697 337.212 406.277 334.878 405.304 332.3C404.33 329.722 403.823 326.953 403.811 324.153C403.799 321.354 404.283 318.579 405.234 315.991C406.186 313.403 407.586 311.053 409.353 309.079C411.121 307.104 413.22 305.543 415.529 304.487C417.838 303.431 420.311 302.901 422.805 302.928C425.298 302.955 427.761 303.539 430.052 304.644C432.343 305.75 434.415 307.356 436.148 309.369L449.611 324.539C451.357 326.501 452.742 328.831 453.687 331.395C454.632 333.959 455.117 336.706 455.116 339.481C455.115 342.256 454.627 345.003 453.681 347.566C452.734 350.128 451.347 352.457 449.599 354.418L449.54 354.352Z" stroke="black" stroke-width="2" mask="url(#path-1-inside-1_169_373)"/>
</g>
<defs>
<filter id="filter0_d_169_373" x="0.814941" y="0.127563" width="572.353" height="641.692" filterUnits="userSpaceOnUse" color-interpolation-filters="sRGB">
<feFlood flood-opacity="0" result="BackgroundImageFix"/>
<feColorMatrix in="SourceAlpha" type="matrix" values="0 0 0 0 0 0 0 0 0 0 0 0 0 0 0 0 0 0 127 0" result="hardAlpha"/>
<feOffset dy="4"/>
<feGaussianBlur stdDeviation="2"/>
<feComposite in2="hardAlpha" operator="out"/>
<feColorMatrix type="matrix" values="0 0 0 0 0 0 0 0 0 0 0 0 0 0 0 0 0 0 0.25 0"/>
<feBlend mode="normal" in2="BackgroundImageFix" result="effect1_dropShadow_169_373"/>
<feBlend mode="normal" in="SourceGraphic" in2="effect1_dropShadow_169_373" result="shape"/>
</filter>
</defs>
</svg>
