<svg width="102" height="69" viewBox="0 0 102 69" fill="none" xmlns="http://www.w3.org/2000/svg">
<path d="M32.9906 34.8388C32.9906 36.7179 31.2729 38.1502 29.0948 38.1502C27.4656 38.1502 26.2615 37.3493 26.2615 35.84C26.2615 33.9609 27.9438 32.4516 30.1042 32.4516C31.751 32.4516 32.9906 33.3295 32.9906 34.8388ZM14.2552 27.369H13.4229C13.1573 27.369 12.8917 27.523 12.8562 27.7848L12.0948 31.8971L13.5469 31.8509C15.4948 31.8509 17 31.6199 17.3542 29.6638C17.7615 27.6 16.2563 27.369 14.2552 27.369ZM64.5469 27.369H63.75C63.4312 27.369 63.2187 27.523 63.1833 27.7848L62.4396 31.8971L63.8563 31.8509C66.1583 31.8509 67.7521 31.3888 67.7521 29.0786C67.7344 27.446 66.0521 27.369 64.5469 27.369ZM102 7.39286V61.6071C102 65.6886 98.1927 69 93.5 69H8.5C3.80729 69 0 65.6886 0 61.6071V7.39286C0 3.31138 3.80729 0 8.5 0H93.5C98.1927 0 102 3.31138 102 7.39286ZM22.7198 28.2469C22.7198 25.0125 19.851 23.9344 16.575 23.9344H9.49167C9.04896 23.9344 8.60625 24.2424 8.57083 24.6583L5.66667 40.3835C5.61354 40.6915 5.87917 40.9996 6.23333 40.9996H9.59792C10.076 40.9996 10.5188 40.5529 10.5719 40.1217L11.3687 36.0248C11.5458 34.9158 13.7062 35.3009 14.5562 35.3009C19.6208 35.3009 22.7198 32.6826 22.7198 28.2469ZM37.6302 29.6022H34.2656C33.5927 29.6022 33.5573 30.4493 33.5219 30.8652C32.4948 29.556 31.0073 29.325 29.325 29.325C24.9865 29.325 21.675 32.6364 21.675 36.2866C21.675 39.29 23.8354 41.246 27.2885 41.246C28.8823 41.246 30.8656 40.4913 31.9812 39.4132C31.8927 39.6442 31.8042 40.1371 31.8042 40.3681C31.8042 40.7223 31.9812 40.9841 32.3708 40.9841H35.4167C35.8948 40.9841 36.3021 40.5375 36.3906 40.1062L38.1969 30.2029C38.25 29.9103 37.9844 29.6022 37.6302 29.6022ZM44.8021 44.6806L56.0823 30.4185C56.1708 30.3415 56.1708 30.2645 56.1708 30.1567C56.1708 29.8949 55.9052 29.6176 55.6042 29.6176H52.2042C51.9031 29.6176 51.5844 29.7717 51.4073 30.0027L46.7146 36.0094L44.7667 30.2337C44.625 29.8949 44.2354 29.6176 43.7927 29.6176H40.4813C40.1802 29.6176 39.9146 29.8949 39.9146 30.1567C39.9146 30.3415 43.3677 38.9049 43.6688 39.7212C43.1906 40.3065 40.0385 44.1261 40.0385 44.5882C40.0385 44.8654 40.3042 45.081 40.6052 45.081H44.0052C44.324 45.0656 44.625 44.9116 44.8021 44.6806ZM73.0115 28.2469C73.0115 25.0125 70.1427 23.9344 66.8667 23.9344H59.8365C59.3583 23.9344 58.9156 24.2424 58.8625 24.6583L55.9937 40.3681C55.9583 40.6761 56.224 40.9841 56.5604 40.9841H60.1906C60.5448 40.9841 60.8104 40.7531 60.899 40.4913L61.6958 36.0248C61.8729 34.9158 64.0333 35.3009 64.8833 35.3009C69.9125 35.3009 73.0115 32.6826 73.0115 28.2469ZM87.9219 29.6022H84.5573C83.8844 29.6022 83.849 30.4493 83.7958 30.8652C82.8219 29.556 81.3167 29.325 79.599 29.325C75.2604 29.325 71.949 32.6364 71.949 36.2866C71.949 39.29 74.1094 41.246 77.5625 41.246C79.2094 41.246 81.1927 40.4913 82.2552 39.4132C82.2021 39.6442 82.0781 40.1371 82.0781 40.3681C82.0781 40.7223 82.2552 40.9841 82.6448 40.9841H85.7083C86.1865 40.9841 86.5938 40.5375 86.6823 40.1062L88.4885 30.2029C88.5417 29.9103 88.276 29.6022 87.9219 29.6022ZM96.3333 24.4734C96.3333 24.1654 96.0677 23.9344 95.7667 23.9344H92.4906C92.225 23.9344 91.9594 24.1192 91.924 24.3502L89.0552 40.3681L89.0021 40.4451C89.0021 40.7223 89.2677 40.9841 89.6219 40.9841H92.5437C92.9865 40.9841 93.4292 40.5375 93.4646 40.1062L96.3333 24.5196V24.4734ZM80.3958 32.4516C78.2354 32.4516 76.5531 33.9455 76.5531 35.84C76.5531 37.3339 77.7927 38.1502 79.4219 38.1502C81.5469 38.1502 83.2646 36.7333 83.2646 34.8388C83.2823 33.3295 82.0427 32.4516 80.3958 32.4516Z" fill="black"/>
</svg>
